<?xml version="1.0" encoding="UTF-8" standalone="no"?>
<!-- Created with Inkscape (http://www.inkscape.org/) -->

<svg
   width="94.441696mm"
   height="59.723446mm"
   viewBox="0 0 94.441696 59.723446"
   version="1.1"
   id="svg1"
   xml:space="preserve"
   inkscape:version="1.3 (0e150ed6c4, 2023-07-21)"
   sodipodi:docname="02_diagrama_lut.svg"
   inkscape:export-filename="02_diagrama_lut.png"
   inkscape:export-xdpi="322.7388"
   inkscape:export-ydpi="322.7388"
   xmlns:inkscape="http://www.inkscape.org/namespaces/inkscape"
   xmlns:sodipodi="http://sodipodi.sourceforge.net/DTD/sodipodi-0.dtd"
   xmlns="http://www.w3.org/2000/svg"
   xmlns:svg="http://www.w3.org/2000/svg"><sodipodi:namedview
     id="namedview1"
     pagecolor="#ffffff"
     bordercolor="#000000"
     borderopacity="0.25"
     inkscape:showpageshadow="2"
     inkscape:pageopacity="0.0"
     inkscape:pagecheckerboard="0"
     inkscape:deskcolor="#d1d1d1"
     inkscape:document-units="mm"
     showgrid="true"
     inkscape:zoom="2"
     inkscape:cx="167.5"
     inkscape:cy="135.75"
     inkscape:window-width="1920"
     inkscape:window-height="1001"
     inkscape:window-x="-9"
     inkscape:window-y="1341"
     inkscape:window-maximized="1"
     inkscape:current-layer="layer1" /><defs
     id="defs1"><defs
   id="id-5288af28-e6e5-4820-ac1f-294ad926d227">&#10;    <g
   id="id-63547782-87ac-414f-a652-12d8d8d44672">&#10;      <g
   id="id-36e1bd44-aa51-42b2-a12b-25fb4f77f0e0" />&#10;      <g
   id="id-ae8f0ea8-a48d-4b96-90e9-6a3e2a3337b2">&#10;        <path
   d="M 1.78125,-1.140625 C 1.390625,-0.484375 1,-0.34375 0.5625,-0.3125 0.4375,-0.296875 0.34375,-0.296875 0.34375,-0.109375 0.34375,-0.046875 0.40625,0 0.484375,0 0.75,0 1.0625,-0.03125 1.328125,-0.03125 c 0.34375,0 0.6875,0.03125 1,0.03125 0.0625,0 0.1875,0 0.1875,-0.1875 0,-0.109375 -0.078125,-0.125 -0.15625,-0.125 -0.21875,-0.015625 -0.46875,-0.09375 -0.46875,-0.34375 0,-0.125 0.0625,-0.234375 0.140625,-0.375 l 0.765625,-1.265625 h 2.5 c 0.015625,0.203125 0.15625,1.5625 0.15625,1.65625 0,0.296875 -0.515625,0.328125 -0.71875,0.328125 C 4.59375,-0.3125 4.5,-0.3125 4.5,-0.109375 4.5,0 4.609375,0 4.640625,0 5.046875,0 5.46875,-0.03125 5.875,-0.03125 6.125,-0.03125 6.765625,0 7.015625,0 7.0625,0 7.1875,0 7.1875,-0.203125 7.1875,-0.3125 7.09375,-0.3125 6.953125,-0.3125 6.34375,-0.3125 6.34375,-0.375 6.3125,-0.671875 l -0.609375,-6.21875 c -0.015625,-0.203125 -0.015625,-0.25 -0.1875,-0.25 -0.15625,0 -0.203125,0.078125 -0.265625,0.171875 z M 2.984375,-2.609375 4.9375,-5.90625 5.265625,-2.609375 Z m 0,0"
   id="id-03825992-e2d1-4d2e-96a1-e9968870e424" />&#10;      </g>&#10;      <g
   id="id-3dd0f740-b1a3-4449-b3ce-ea516b5e64f6">&#10;        <path
   d="M 1.59375,-0.78125 C 1.5,-0.390625 1.46875,-0.3125 0.6875,-0.3125 c -0.171875,0 -0.265625,0 -0.265625,0.203125 C 0.421875,0 0.515625,0 0.6875,0 H 4.25 C 5.828125,0 7,-1.171875 7,-2.15625 7,-2.875 6.421875,-3.453125 5.453125,-3.5625 6.484375,-3.75 7.53125,-4.484375 7.53125,-5.4375 c 0,-0.734375 -0.65625,-1.375 -1.84375,-1.375 H 2.328125 c -0.1875,0 -0.28125,0 -0.28125,0.203125 0,0.109375 0.09375,0.109375 0.28125,0.109375 0.015625,0 0.203125,0 0.375,0.015625 0.171875,0.03125 0.265625,0.03125 0.265625,0.171875 0,0.03125 -0.015625,0.0625 -0.03125,0.1875 z m 1.5,-2.875 0.625,-2.46875 C 3.8125,-6.46875 3.828125,-6.5 4.25,-6.5 h 1.296875 c 0.875,0 1.078125,0.59375 1.078125,1.03125 0,0.875 -0.859375,1.8125 -2.0625,1.8125 z m -0.4375,3.34375 c -0.140625,0 -0.15625,0 -0.21875,0 -0.109375,-0.015625 -0.140625,-0.03125 -0.140625,-0.109375 0,-0.03125 0,-0.046875 0.0625,-0.21875 l 0.6875,-2.78125 h 1.875 c 0.953125,0 1.15625,0.734375 1.15625,1.15625 C 6.078125,-1.28125 5.1875,-0.3125 4,-0.3125 Z m 0,0"
   id="id-dce581d1-ccee-4b8e-bd5b-dd9102e4ec96" />&#10;      </g>&#10;      <g
   id="id-d2bbad08-e081-4928-a181-a2541f7509d2">&#10;        <path
   d="m 7.578125,-6.921875 c 0,-0.03125 -0.015625,-0.109375 -0.109375,-0.109375 -0.03125,0 -0.046875,0.015625 -0.15625,0.125 L 6.625,-6.140625 C 6.53125,-6.28125 6.078125,-7.03125 4.96875,-7.03125 2.734375,-7.03125 0.5,-4.828125 0.5,-2.515625 0.5,-0.875 1.671875,0.21875 3.203125,0.21875 c 0.859375,0 1.625,-0.390625 2.15625,-0.859375 0.921875,-0.8125 1.09375,-1.71875 1.09375,-1.75 C 6.453125,-2.5 6.34375,-2.5 6.328125,-2.5 c -0.0625,0 -0.109375,0.03125 -0.125,0.109375 -0.09375,0.28125 -0.328125,1 -1.015625,1.578125 -0.6875,0.546875 -1.3125,0.71875 -1.828125,0.71875 -0.890625,0 -1.953125,-0.515625 -1.953125,-2.0625 0,-0.578125 0.203125,-2.1875 1.203125,-3.359375 0.609375,-0.703125 1.546875,-1.203125 2.4375,-1.203125 1.015625,0 1.609375,0.765625 1.609375,1.921875 0,0.40625 -0.03125,0.40625 -0.03125,0.515625 0,0.09375 0.109375,0.09375 0.140625,0.09375 0.125,0 0.125,-0.015625 0.1875,-0.203125 z m 0,0"
   id="id-ea8d886e-d15b-45ad-8fae-e600e739b737" />&#10;      </g>&#10;      <g
   id="id-db5f1447-b06c-4537-930f-144a92e5fb6a">&#10;        <path
   d="m 1.578125,-0.78125 c -0.09375,0.390625 -0.109375,0.46875 -0.90625,0.46875 -0.15625,0 -0.265625,0 -0.265625,0.1875 C 0.40625,0 0.484375,0 0.671875,0 h 3.3125 c 2.0625,0 4.03125,-2.109375 4.03125,-4.28125 0,-1.40625 -0.84375,-2.53125 -2.34375,-2.53125 h -3.34375 c -0.1875,0 -0.296875,0 -0.296875,0.1875 0,0.125 0.078125,0.125 0.28125,0.125 0.125,0 0.3125,0.015625 0.421875,0.015625 0.171875,0.03125 0.21875,0.046875 0.21875,0.171875 0,0.03125 0,0.0625 -0.03125,0.1875 z M 3.734375,-6.125 C 3.828125,-6.46875 3.84375,-6.5 4.28125,-6.5 h 1.0625 c 0.96875,0 1.796875,0.53125 1.796875,1.84375 0,0.484375 -0.1875,2.125 -1.046875,3.21875 -0.28125,0.375 -1.0625,1.125 -2.296875,1.125 h -1.125 c -0.140625,0 -0.15625,0 -0.21875,0 -0.09375,-0.015625 -0.125,-0.03125 -0.125,-0.109375 0,-0.03125 0,-0.046875 0.046875,-0.21875 z m 0,0"
   id="id-e6b74ebb-d2ea-4588-9909-5925e78c1de9" />&#10;      </g>&#10;    </g>&#10;  </defs>&#10;  &#10;  &#10;  &#10;  &#10;  &#10;  &#10;  &#10;  &#10;  &#10;  &#10;  &#10;&#10;    <defs
   id="id-b252fecf-a3c9-4977-8da7-52e5862bd53a">&#10;    <g
   id="id-7781f791-b449-4420-9b3a-3b953f41bfe9">&#10;      <g
   id="id-041d3cf8-1a6f-4e6b-b9e4-67851dd4476f" />&#10;      <g
   id="id-d1a4d91c-f558-4ba8-b533-96778d3843f8">&#10;        <path
   d="m 3.65625,-3.984375 h 0.859375 c 0.203125,0 0.296875,0 0.296875,-0.203125 0,-0.109375 -0.09375,-0.109375 -0.265625,-0.109375 H 3.71875 L 3.921875,-5.4375 c 0.046875,-0.203125 0.1875,-0.90625 0.25,-1.03125 0.078125,-0.1875 0.25,-0.34375 0.46875,-0.34375 0.03125,0 0.296875,0 0.484375,0.1875 -0.4375,0.03125 -0.546875,0.390625 -0.546875,0.53125 0,0.234375 0.1875,0.359375 0.375,0.359375 C 5.21875,-5.734375 5.5,-5.96875 5.5,-6.34375 c 0,-0.453125 -0.453125,-0.6875 -0.859375,-0.6875 -0.34375,0 -0.96875,0.1875 -1.265625,1.171875 -0.0625,0.203125 -0.09375,0.3125 -0.328125,1.5625 h -0.6875 c -0.203125,0 -0.3125,0 -0.3125,0.1875 0,0.125 0.09375,0.125 0.28125,0.125 h 0.65625 L 2.25,-0.046875 c -0.1875,0.96875 -0.359375,1.875 -0.875,1.875 -0.046875,0 -0.28125,0 -0.484375,-0.1875 C 1.359375,1.609375 1.453125,1.25 1.453125,1.109375 1.453125,0.875 1.265625,0.75 1.078125,0.75 0.8125,0.75 0.53125,0.984375 0.53125,1.359375 c 0,0.4375 0.4375,0.6875 0.84375,0.6875 0.546875,0 0.953125,-0.59375 1.125,-0.96875 0.328125,-0.625 0.546875,-1.828125 0.5625,-1.90625 z m 0,0"
   id="id-0ca2834b-4bde-4f9c-a8e0-4252e132bdc8" />&#10;      </g>&#10;      <g
   id="id-16ed324a-e920-4175-9f7e-f2687837e18b">&#10;        <path
   d="m 3.953125,-3.78125 c -0.171875,0 -0.296875,0 -0.4375,0.125 -0.171875,0.15625 -0.1875,0.328125 -0.1875,0.390625 0,0.25 0.1875,0.359375 0.375,0.359375 0.28125,0 0.546875,-0.25 0.546875,-0.640625 0,-0.484375 -0.46875,-0.859375 -1.171875,-0.859375 -1.34375,0 -2.671875,1.421875 -2.671875,2.828125 0,0.90625 0.578125,1.6875 1.625,1.6875 1.421875,0 2.25,-1.0625 2.25,-1.171875 0,-0.0625 -0.046875,-0.140625 -0.109375,-0.140625 -0.0625,0 -0.078125,0.03125 -0.140625,0.109375 -0.78125,0.984375 -1.875,0.984375 -1.984375,0.984375 -0.625,0 -0.90625,-0.484375 -0.90625,-1.09375 0,-0.40625 0.203125,-1.375 0.546875,-1.984375 0.3125,-0.578125 0.859375,-1 1.40625,-1 0.328125,0 0.71875,0.125 0.859375,0.40625 z m 0,0"
   id="id-a214696b-db32-485c-85ba-5078cbe8c423" />&#10;      </g>&#10;      <g
   id="id-ca90e14e-a7fe-4e3b-bf20-07de47113051" />&#10;      <g
   id="id-e39fb23a-4e36-4464-84df-f8caf938d4cf">&#10;        <path
   d="m 2.328125,-4.4375 c 0,-0.1875 0,-0.1875 -0.203125,-0.1875 -0.453125,0.4375 -1.078125,0.4375 -1.359375,0.4375 v 0.25 c 0.15625,0 0.625,0 1,-0.1875 v 3.546875 c 0,0.234375 0,0.328125 -0.6875,0.328125 H 0.8125 V 0 c 0.125,0 0.984375,-0.03125 1.234375,-0.03125 0.21875,0 1.09375,0.03125 1.25,0.03125 V -0.25 H 3.03125 c -0.703125,0 -0.703125,-0.09375 -0.703125,-0.328125 z m 0,0"
   id="id-8ebb633b-e60b-43f8-b0fe-41ba4848e453" />&#10;      </g>&#10;      <g
   id="id-69875e43-0793-4127-b1a8-7fd1f7221d3b">&#10;        <path
   d="M 3.515625,-1.265625 H 3.28125 c -0.015625,0.15625 -0.09375,0.5625 -0.1875,0.625 C 3.046875,-0.59375 2.515625,-0.59375 2.40625,-0.59375 H 1.125 c 0.734375,-0.640625 0.984375,-0.84375 1.390625,-1.171875 0.515625,-0.40625 1,-0.84375 1,-1.5 0,-0.84375 -0.734375,-1.359375 -1.625,-1.359375 -0.859375,0 -1.453125,0.609375 -1.453125,1.25 0,0.34375 0.296875,0.390625 0.375,0.390625 0.15625,0 0.359375,-0.125 0.359375,-0.375 0,-0.125 -0.046875,-0.375 -0.40625,-0.375 C 0.984375,-4.21875 1.453125,-4.375 1.78125,-4.375 c 0.703125,0 1.0625,0.546875 1.0625,1.109375 0,0.609375 -0.4375,1.078125 -0.65625,1.328125 L 0.515625,-0.265625 C 0.4375,-0.203125 0.4375,-0.1875 0.4375,0 h 2.875 z m 0,0"
   id="id-292ea631-cc1f-49a7-8590-6bad929f5486" />&#10;      </g>&#10;      <g
   id="id-8aa26cb3-a28d-4436-93a0-8c1ee13b765b">&#10;        <path
   d="m 1.90625,-2.328125 c 0.546875,0 0.9375,0.375 0.9375,1.125 0,0.859375 -0.515625,1.125 -0.90625,1.125 -0.28125,0 -0.90625,-0.078125 -1.1875,-0.5 0.328125,0 0.40625,-0.234375 0.40625,-0.390625 0,-0.21875 -0.171875,-0.375 -0.390625,-0.375 -0.1875,0 -0.390625,0.125 -0.390625,0.40625 0,0.65625 0.71875,1.078125 1.5625,1.078125 0.96875,0 1.640625,-0.65625 1.640625,-1.34375 0,-0.546875 -0.4375,-1.09375 -1.203125,-1.25 0.71875,-0.265625 0.984375,-0.78125 0.984375,-1.21875 0,-0.546875 -0.625,-0.953125 -1.40625,-0.953125 -0.765625,0 -1.359375,0.375 -1.359375,0.9375 0,0.234375 0.15625,0.359375 0.359375,0.359375 0.21875,0 0.359375,-0.15625 0.359375,-0.34375 0,-0.203125 -0.140625,-0.359375 -0.359375,-0.375 0.25,-0.296875 0.71875,-0.375 0.984375,-0.375 0.3125,0 0.75,0.15625 0.75,0.75 0,0.296875 -0.09375,0.625 -0.28125,0.828125 -0.21875,0.265625 -0.421875,0.28125 -0.765625,0.3125 -0.171875,0.015625 -0.1875,0.015625 -0.21875,0.015625 -0.015625,0 -0.078125,0.015625 -0.078125,0.09375 0,0.09375 0.0625,0.09375 0.1875,0.09375 z m 0,0"
   id="id-2d76e3ef-0df7-4ade-95dd-c85779c10cee" />&#10;      </g>&#10;    </g>&#10;  </defs>&#10;  &#10;  &#10;  &#10;  &#10;  &#10;  &#10;  &#10;</defs><g
     inkscape:label="Layer 1"
     inkscape:groupmode="layer"
     id="layer1"
     transform="translate(-8.3163732,-108.79023)"><rect
       style="fill:#ffffff;stroke:#ffffff;stroke-width:0.141;stroke-miterlimit:4.1"
       id="rect86"
       width="94.300697"
       height="59.582447"
       x="8.3868732"
       y="108.86073" /><g
       transform="matrix(0.5,0,0,0.49409455,-71.034434,39.258533)"
       id="layer1-6"
       inkscape:label="Layer 1"
       style="stroke-width:2.01192"><path
         style="fill:none;stroke:#000000;stroke-width:0.282839;stroke-linecap:butt;stroke-linejoin:miter;stroke-miterlimit:10;stroke-opacity:1"
         d="m 231.98938,187.69983 h -3.92051 m 3.92051,5.60034 h -3.92051"
         id="path843" /><path
         style="fill:none;stroke:#000000;stroke-width:0.565681;stroke-linecap:butt;stroke-linejoin:miter;stroke-miterlimit:10;stroke-opacity:1"
         d="m 231.98938,184.89965 h 8.18417 c 3.0937,0 5.60035,2.50803 5.60035,5.60035 0,3.09232 -2.50665,5.60035 -5.60035,5.60035 h -8.18417 z m 0,0"
         id="path845" /><path
         style="fill:none;stroke:#000000;stroke-width:0.282839;stroke-linecap:butt;stroke-linejoin:miter;stroke-miterlimit:10;stroke-opacity:1"
         d="m 245.7739,190.5 h 3.91914"
         id="path847" /></g><g
       transform="matrix(0,0.36652781,-0.33930905,0,51.858434,75.171654)"
       id="layer1-7"
       inkscape:label="Layer 1"
       style="stroke-width:2.83564"><path
         style="fill:none;stroke:#000000;stroke-width:0.398637;stroke-linecap:butt;stroke-linejoin:miter;stroke-miterlimit:10;stroke-opacity:1"
         d="m 128.95425,99.786414 h -3.92051"
         id="path903" /><path
         style="fill:none;stroke:#000000;stroke-width:0.797277;stroke-linecap:butt;stroke-linejoin:miter;stroke-miterlimit:10;stroke-opacity:1"
         d="m 128.95425,94.186074 9.69864,5.60034 -9.69864,5.598966 z m 0,0"
         id="path905" /><path
         style="fill:none;stroke:#000000;stroke-width:0.398637;stroke-linecap:butt;stroke-linejoin:miter;stroke-miterlimit:10;stroke-opacity:1"
         d="m 140.37819,99.786414 h 2.19522"
         id="path907" /><path
         style="fill:#ffffff;fill-opacity:1;fill-rule:nonzero;stroke:#000000;stroke-width:0.797277;stroke-linecap:butt;stroke-linejoin:miter;stroke-miterlimit:10;stroke-opacity:1"
         d="m 140.37819,99.786414 c 0,-0.4768 -0.38585,-0.86265 -0.86265,-0.86265 -0.47542,0 -0.86265,0.38585 -0.86265,0.86265 0,0.475426 0.38723,0.861276 0.86265,0.861276 0.4768,0 0.86265,-0.38585 0.86265,-0.861276 z m 0,0"
         id="path909" /></g><g
       transform="matrix(0.352778,0,0,0.352778,13.751356,114.89348)"
       id="g9316"
       style="fill:#000000;fill-opacity:1"><path
   d="M 1.78125,-1.140625 C 1.390625,-0.484375 1,-0.34375 0.5625,-0.3125 0.4375,-0.296875 0.34375,-0.296875 0.34375,-0.109375 0.34375,-0.046875 0.40625,0 0.484375,0 0.75,0 1.0625,-0.03125 1.328125,-0.03125 c 0.34375,0 0.6875,0.03125 1,0.03125 0.0625,0 0.1875,0 0.1875,-0.1875 0,-0.109375 -0.078125,-0.125 -0.15625,-0.125 -0.21875,-0.015625 -0.46875,-0.09375 -0.46875,-0.34375 0,-0.125 0.0625,-0.234375 0.140625,-0.375 l 0.765625,-1.265625 h 2.5 c 0.015625,0.203125 0.15625,1.5625 0.15625,1.65625 0,0.296875 -0.515625,0.328125 -0.71875,0.328125 C 4.59375,-0.3125 4.5,-0.3125 4.5,-0.109375 4.5,0 4.609375,0 4.640625,0 5.046875,0 5.46875,-0.03125 5.875,-0.03125 6.125,-0.03125 6.765625,0 7.015625,0 7.0625,0 7.1875,0 7.1875,-0.203125 7.1875,-0.3125 7.09375,-0.3125 6.953125,-0.3125 6.34375,-0.3125 6.34375,-0.375 6.3125,-0.671875 l -0.609375,-6.21875 c -0.015625,-0.203125 -0.015625,-0.25 -0.1875,-0.25 -0.15625,0 -0.203125,0.078125 -0.265625,0.171875 z M 2.984375,-2.609375 4.9375,-5.90625 5.265625,-2.609375 Z m 0,0"
   id="id-69b81339-4c8c-48fd-ba9c-8142ef98113b" />&#10;      </g><g
       transform="matrix(0.352778,0,0,0.352778,20.810076,114.89348)"
       id="g9275"
       style="fill:#000000;fill-opacity:1"><path
   d="M 1.59375,-0.78125 C 1.5,-0.390625 1.46875,-0.3125 0.6875,-0.3125 c -0.171875,0 -0.265625,0 -0.265625,0.203125 C 0.421875,0 0.515625,0 0.6875,0 H 4.25 C 5.828125,0 7,-1.171875 7,-2.15625 7,-2.875 6.421875,-3.453125 5.453125,-3.5625 6.484375,-3.75 7.53125,-4.484375 7.53125,-5.4375 c 0,-0.734375 -0.65625,-1.375 -1.84375,-1.375 H 2.328125 c -0.1875,0 -0.28125,0 -0.28125,0.203125 0,0.109375 0.09375,0.109375 0.28125,0.109375 0.015625,0 0.203125,0 0.375,0.015625 0.171875,0.03125 0.265625,0.03125 0.265625,0.171875 0,0.03125 -0.015625,0.0625 -0.03125,0.1875 z m 1.5,-2.875 0.625,-2.46875 C 3.8125,-6.46875 3.828125,-6.5 4.25,-6.5 h 1.296875 c 0.875,0 1.078125,0.59375 1.078125,1.03125 0,0.875 -0.859375,1.8125 -2.0625,1.8125 z m -0.4375,3.34375 c -0.140625,0 -0.15625,0 -0.21875,0 -0.109375,-0.015625 -0.140625,-0.03125 -0.140625,-0.109375 0,-0.03125 0,-0.046875 0.0625,-0.21875 l 0.6875,-2.78125 h 1.875 c 0.953125,0 1.15625,0.734375 1.15625,1.15625 C 6.078125,-1.28125 5.1875,-0.3125 4,-0.3125 Z m 0,0"
   id="id-99442f0b-444c-474e-b583-b934ed417046" />&#10;      </g><g
       fill="#000000"
       fill-opacity="1"
       id="id-3b0362a1-99bd-4875-b8d7-5234853ce8b2"
       transform="matrix(0.352778,0,0,0.352778,-30.018745,67.351351)">&#10;    <g
   transform="translate(164.239,134.765)"
   id="g2924"><path
   d="m 7.578125,-6.921875 c 0,-0.03125 -0.015625,-0.109375 -0.109375,-0.109375 -0.03125,0 -0.046875,0.015625 -0.15625,0.125 L 6.625,-6.140625 C 6.53125,-6.28125 6.078125,-7.03125 4.96875,-7.03125 2.734375,-7.03125 0.5,-4.828125 0.5,-2.515625 0.5,-0.875 1.671875,0.21875 3.203125,0.21875 c 0.859375,0 1.625,-0.390625 2.15625,-0.859375 0.921875,-0.8125 1.09375,-1.71875 1.09375,-1.75 C 6.453125,-2.5 6.34375,-2.5 6.328125,-2.5 c -0.0625,0 -0.109375,0.03125 -0.125,0.109375 -0.09375,0.28125 -0.328125,1 -1.015625,1.578125 -0.6875,0.546875 -1.3125,0.71875 -1.828125,0.71875 -0.890625,0 -1.953125,-0.515625 -1.953125,-2.0625 0,-0.578125 0.203125,-2.1875 1.203125,-3.359375 0.609375,-0.703125 1.546875,-1.203125 2.4375,-1.203125 1.015625,0 1.609375,0.765625 1.609375,1.921875 0,0.40625 -0.03125,0.40625 -0.03125,0.515625 0,0.09375 0.109375,0.09375 0.140625,0.09375 0.125,0 0.125,-0.015625 0.1875,-0.203125 z m 0,0"
   id="id-ec126c62-5531-4ae5-8721-531a594f0fe1" />&#10;      </g></g><g
       fill="#000000"
       fill-opacity="1"
       id="id-efdda53e-f066-4e69-aac0-2c7526b02274"
       transform="matrix(0.352778,0,0,0.352778,-25.710966,67.351351)">&#10;    <g
   transform="translate(172.076,134.765)"
   id="g3908"><path
   d="m 1.578125,-0.78125 c -0.09375,0.390625 -0.109375,0.46875 -0.90625,0.46875 -0.15625,0 -0.265625,0 -0.265625,0.1875 C 0.40625,0 0.484375,0 0.671875,0 h 3.3125 c 2.0625,0 4.03125,-2.109375 4.03125,-4.28125 0,-1.40625 -0.84375,-2.53125 -2.34375,-2.53125 h -3.34375 c -0.1875,0 -0.296875,0 -0.296875,0.1875 0,0.125 0.078125,0.125 0.28125,0.125 0.125,0 0.3125,0.015625 0.421875,0.015625 0.171875,0.03125 0.21875,0.046875 0.21875,0.171875 0,0.03125 0,0.0625 -0.03125,0.1875 z M 3.734375,-6.125 C 3.828125,-6.46875 3.84375,-6.5 4.28125,-6.5 h 1.0625 c 0.96875,0 1.796875,0.53125 1.796875,1.84375 0,0.484375 -0.1875,2.125 -1.046875,3.21875 -0.28125,0.375 -1.0625,1.125 -2.296875,1.125 h -1.125 c -0.140625,0 -0.15625,0 -0.21875,0 -0.09375,-0.015625 -0.125,-0.03125 -0.125,-0.109375 0,-0.03125 0,-0.046875 0.046875,-0.21875 z m 0,0"
   id="id-e012850f-a781-45e7-a23d-fba36c588b0c" />&#10;      </g></g><path
       style="fill:#000000;stroke:#000000;stroke-width:0.141;stroke-miterlimit:4.1"
       d="M 15,115.99999 V 165"
       id="path4"
       sodipodi:nodetypes="cc" /><path
       style="fill:#000000;stroke:#000000;stroke-width:0.141;stroke-miterlimit:4.1"
       d="M 22,115.99999 V 165"
       id="path5"
       sodipodi:nodetypes="cc" /><path
       style="fill:#000000;stroke:#000000;stroke-width:0.141;stroke-miterlimit:4.1"
       d="M 29,115.99999 V 165"
       id="path6"
       sodipodi:nodetypes="cc" /><path
       style="fill:#000000;stroke:#000000;stroke-width:0.141;stroke-miterlimit:4.1"
       d="M 36,115.99999 V 165"
       id="path7"
       sodipodi:nodetypes="cc" /><g
       transform="matrix(0,0.36652781,-0.33930905,0,58.858434,75.171654)"
       id="g11"
       inkscape:label="Layer 1"
       style="stroke-width:2.83564"><path
         style="fill:none;stroke:#000000;stroke-width:0.398637;stroke-linecap:butt;stroke-linejoin:miter;stroke-miterlimit:10;stroke-opacity:1"
         d="m 128.95425,99.786414 h -3.92051"
         id="path8" /><path
         style="fill:none;stroke:#000000;stroke-width:0.797277;stroke-linecap:butt;stroke-linejoin:miter;stroke-miterlimit:10;stroke-opacity:1"
         d="m 128.95425,94.186074 9.69864,5.60034 -9.69864,5.598966 z m 0,0"
         id="path9" /><path
         style="fill:none;stroke:#000000;stroke-width:0.398637;stroke-linecap:butt;stroke-linejoin:miter;stroke-miterlimit:10;stroke-opacity:1"
         d="m 140.37819,99.786414 h 2.19522"
         id="path10" /><path
         style="fill:#ffffff;fill-opacity:1;fill-rule:nonzero;stroke:#000000;stroke-width:0.797277;stroke-linecap:butt;stroke-linejoin:miter;stroke-miterlimit:10;stroke-opacity:1"
         d="m 140.37819,99.786414 c 0,-0.4768 -0.38585,-0.86265 -0.86265,-0.86265 -0.47542,0 -0.86265,0.38585 -0.86265,0.86265 0,0.475426 0.38723,0.861276 0.86265,0.861276 0.4768,0 0.86265,-0.38585 0.86265,-0.861276 z m 0,0"
         id="path11" /></g><g
       transform="matrix(0,0.36652781,-0.33930905,0,65.858434,75.171654)"
       id="g15"
       inkscape:label="Layer 1"
       style="stroke-width:2.83564"><path
         style="fill:none;stroke:#000000;stroke-width:0.398637;stroke-linecap:butt;stroke-linejoin:miter;stroke-miterlimit:10;stroke-opacity:1"
         d="m 128.95425,99.786414 h -3.92051"
         id="path12" /><path
         style="fill:none;stroke:#000000;stroke-width:0.797277;stroke-linecap:butt;stroke-linejoin:miter;stroke-miterlimit:10;stroke-opacity:1"
         d="m 128.95425,94.186074 9.69864,5.60034 -9.69864,5.598966 z m 0,0"
         id="path13" /><path
         style="fill:none;stroke:#000000;stroke-width:0.398637;stroke-linecap:butt;stroke-linejoin:miter;stroke-miterlimit:10;stroke-opacity:1"
         d="m 140.37819,99.786414 h 2.19522"
         id="path14" /><path
         style="fill:#ffffff;fill-opacity:1;fill-rule:nonzero;stroke:#000000;stroke-width:0.797277;stroke-linecap:butt;stroke-linejoin:miter;stroke-miterlimit:10;stroke-opacity:1"
         d="m 140.37819,99.786414 c 0,-0.4768 -0.38585,-0.86265 -0.86265,-0.86265 -0.47542,0 -0.86265,0.38585 -0.86265,0.86265 0,0.475426 0.38723,0.861276 0.86265,0.861276 0.4768,0 0.86265,-0.38585 0.86265,-0.861276 z m 0,0"
         id="path15" /></g><g
       transform="matrix(0,0.36652781,-0.33930905,0,72.858434,75.171654)"
       id="g19"
       inkscape:label="Layer 1"
       style="stroke-width:2.83564"><path
         style="fill:none;stroke:#000000;stroke-width:0.398637;stroke-linecap:butt;stroke-linejoin:miter;stroke-miterlimit:10;stroke-opacity:1"
         d="m 128.95425,99.786414 h -3.92051"
         id="path16" /><path
         style="fill:none;stroke:#000000;stroke-width:0.797277;stroke-linecap:butt;stroke-linejoin:miter;stroke-miterlimit:10;stroke-opacity:1"
         d="m 128.95425,94.186074 9.69864,5.60034 -9.69864,5.598966 z m 0,0"
         id="path17" /><path
         style="fill:none;stroke:#000000;stroke-width:0.398637;stroke-linecap:butt;stroke-linejoin:miter;stroke-miterlimit:10;stroke-opacity:1"
         d="m 140.37819,99.786414 h 2.19522"
         id="path18" /><path
         style="fill:#ffffff;fill-opacity:1;fill-rule:nonzero;stroke:#000000;stroke-width:0.797277;stroke-linecap:butt;stroke-linejoin:miter;stroke-miterlimit:10;stroke-opacity:1"
         d="m 140.37819,99.786414 c 0,-0.4768 -0.38585,-0.86265 -0.86265,-0.86265 -0.47542,0 -0.86265,0.38585 -0.86265,0.86265 0,0.475426 0.38723,0.861276 0.86265,0.861276 0.4768,0 0.86265,-0.38585 0.86265,-0.861276 z m 0,0"
         id="path19" /></g><path
       style="fill:#000000;stroke:#000000;stroke-width:0.141;stroke-miterlimit:4.1"
       d="M 14.9295,118.99999 18.067631,119"
       id="path20"
       sodipodi:nodetypes="cc" /><path
       style="fill:#000000;stroke:#000000;stroke-width:0.141;stroke-miterlimit:4.1"
       d="M 21.9295,118.99999 25.067631,119"
       id="path21"
       sodipodi:nodetypes="cc" /><path
       style="fill:#000000;stroke:#000000;stroke-width:0.141;stroke-miterlimit:4.1"
       d="M 28.9295,118.99999 32.067631,119"
       id="path22"
       sodipodi:nodetypes="cc" /><path
       style="fill:#000000;stroke:#000000;stroke-width:0.141;stroke-miterlimit:4.1"
       d="M 35.9295,118.99999 39.067631,119"
       id="path23"
       sodipodi:nodetypes="cc" /><path
       style="fill:#000000;stroke:#000000;stroke-width:0.141;stroke-miterlimit:4.1"
       d="M 18,127.37916 V 165"
       id="path24"
       sodipodi:nodetypes="cc" /><path
       style="fill:#000000;stroke:#000000;stroke-width:0.141;stroke-miterlimit:4.1"
       d="M 25,127.37916 V 165"
       id="path25"
       sodipodi:nodetypes="cc" /><path
       style="fill:#000000;stroke:#000000;stroke-width:0.141;stroke-miterlimit:4.1"
       d="M 32,127.37916 V 165"
       id="path26"
       sodipodi:nodetypes="cc" /><path
       style="fill:#000000;stroke:#000000;stroke-width:0.141;stroke-miterlimit:4.1"
       d="M 39,126.69145 V 165"
       id="path27"
       sodipodi:nodetypes="cc" /><path
       style="fill:#000000;stroke:#000000;stroke-width:0.141;stroke-miterlimit:4.1"
       d="m 18,119 v 1.99999"
       id="path28" /><path
       style="fill:#000000;stroke:#000000;stroke-width:0.141;stroke-miterlimit:4.1"
       d="m 25,119 v 1.99999"
       id="path29" /><path
       style="fill:#000000;stroke:#000000;stroke-width:0.141;stroke-miterlimit:4.1"
       d="m 32,119 v 1.99999"
       id="path30" /><path
       style="fill:#000000;stroke:#000000;stroke-width:0.141;stroke-miterlimit:4.1"
       d="m 39,119 v 1.99999"
       id="path31" /><circle
       style="fill:#000000;stroke:#000000;stroke-width:0.141;stroke-miterlimit:10;stroke-dasharray:none"
       id="circle1223"
       cx="15"
       cy="118.99999"
       r="0.32490087" /><circle
       style="fill:#000000;stroke:#000000;stroke-width:0.141;stroke-miterlimit:10;stroke-dasharray:none"
       id="circle31"
       cx="22"
       cy="118.99999"
       r="0.32490087" /><circle
       style="fill:#000000;stroke:#000000;stroke-width:0.141;stroke-miterlimit:10;stroke-dasharray:none"
       id="circle32"
       cx="29"
       cy="118.99999"
       r="0.32490087" /><circle
       style="fill:#000000;stroke:#000000;stroke-width:0.141;stroke-miterlimit:10;stroke-dasharray:none"
       id="circle33"
       cx="36"
       cy="118.99999"
       r="0.32490087" /><path
       style="fill:#000000;stroke:#000000;stroke-width:0.141;stroke-miterlimit:4.1"
       d="M 43.000001,131.99999 H 25"
       id="path41" /><circle
       style="fill:#000000;stroke:#000000;stroke-width:0.141;stroke-miterlimit:10;stroke-dasharray:none"
       id="circle41"
       cx="25"
       cy="132"
       r="0.32490087" /><path
       style="fill:#000000;stroke:#000000;stroke-width:0.141;stroke-miterlimit:4.1"
       d="M 43.000001,134.76709 H 18"
       id="path42" /><circle
       style="fill:#000000;stroke:#000000;stroke-width:0.141;stroke-miterlimit:10;stroke-dasharray:none"
       id="circle42"
       cx="18"
       cy="134.76709"
       r="0.32490087" /><path
       style="fill:#000000;stroke:#000000;stroke-width:0.141;stroke-miterlimit:4.1"
       d="M 56.019874,138.76709 H 35.999999"
       id="path43" /><circle
       style="fill:#000000;stroke:#000000;stroke-width:0.141;stroke-miterlimit:10;stroke-dasharray:none"
       id="circle43"
       cx="36"
       cy="138.76709"
       r="0.32490087" /><path
       style="fill:none;stroke:#000000;stroke-width:0.141;stroke-miterlimit:4.1"
       d="m 53.812086,133.31367 -10e-7,2.68632 2.207789,1e-5"
       id="path44"
       sodipodi:nodetypes="ccc" /><g
       transform="matrix(0.5,0,0,0.49409455,-71.034434,51.258533)"
       id="g47"
       inkscape:label="Layer 1"
       style="stroke-width:2.01192"><path
         style="fill:none;stroke:#000000;stroke-width:0.282839;stroke-linecap:butt;stroke-linejoin:miter;stroke-miterlimit:10;stroke-opacity:1"
         d="m 231.98938,187.69983 h -3.92051 m 3.92051,5.60034 h -3.92051"
         id="path45" /><path
         style="fill:none;stroke:#000000;stroke-width:0.565681;stroke-linecap:butt;stroke-linejoin:miter;stroke-miterlimit:10;stroke-opacity:1"
         d="m 231.98938,184.89965 h 8.18417 c 3.0937,0 5.60035,2.50803 5.60035,5.60035 0,3.09232 -2.50665,5.60035 -5.60035,5.60035 h -8.18417 z m 0,0"
         id="path46" /><path
         style="fill:none;stroke:#000000;stroke-width:0.282839;stroke-linecap:butt;stroke-linejoin:miter;stroke-miterlimit:10;stroke-opacity:1"
         d="m 245.7739,190.5 h 3.91914"
         id="path47" /></g><g
       transform="matrix(0.5,0,0,0.49409455,-58.014561,43.258533)"
       id="g35"
       inkscape:label="Layer 1"
       style="stroke-width:2.01192"><path
         style="fill:none;stroke:#000000;stroke-width:0.282839;stroke-linecap:butt;stroke-linejoin:miter;stroke-miterlimit:10;stroke-opacity:1"
         d="m 231.98938,187.69983 h -3.92051 m 3.92051,5.60034 h -3.92051"
         id="path33" /><path
         style="fill:none;stroke:#000000;stroke-width:0.565681;stroke-linecap:butt;stroke-linejoin:miter;stroke-miterlimit:10;stroke-opacity:1"
         d="m 231.98938,184.89965 h 8.18417 c 3.0937,0 5.60035,2.50803 5.60035,5.60035 0,3.09232 -2.50665,5.60035 -5.60035,5.60035 h -8.18417 z m 0,0"
         id="path34" /><path
         style="fill:none;stroke:#000000;stroke-width:0.282839;stroke-linecap:butt;stroke-linejoin:miter;stroke-miterlimit:10;stroke-opacity:1"
         d="m 245.7739,190.5 h 3.91914"
         id="path35" /></g><g
       transform="matrix(0.5,0,0,0.49409455,-58.014561,55.258533)"
       id="g50"
       inkscape:label="Layer 1"
       style="stroke-width:2.01192"><path
         style="fill:none;stroke:#000000;stroke-width:0.282839;stroke-linecap:butt;stroke-linejoin:miter;stroke-miterlimit:10;stroke-opacity:1"
         d="m 231.98938,187.69983 h -3.92051 m 3.92051,5.60034 h -3.92051"
         id="path48" /><path
         style="fill:none;stroke:#000000;stroke-width:0.565681;stroke-linecap:butt;stroke-linejoin:miter;stroke-miterlimit:10;stroke-opacity:1"
         d="m 231.98938,184.89965 h 8.18417 c 3.0937,0 5.60035,2.50803 5.60035,5.60035 0,3.09232 -2.50665,5.60035 -5.60035,5.60035 h -8.18417 z m 0,0"
         id="path49" /><path
         style="fill:none;stroke:#000000;stroke-width:0.282839;stroke-linecap:butt;stroke-linejoin:miter;stroke-miterlimit:10;stroke-opacity:1"
         d="m 245.7739,190.5 h 3.91914"
         id="path50" /></g><path
       style="fill:#000000;stroke:#000000;stroke-width:0.141;stroke-miterlimit:4.1"
       d="M 43.000001,143.99999 H 22"
       id="path51"
       sodipodi:nodetypes="cc" /><circle
       style="fill:#000000;stroke:#000000;stroke-width:0.141;stroke-miterlimit:10;stroke-dasharray:none"
       id="circle51"
       cx="22"
       cy="144"
       r="0.32490087" /><path
       style="fill:#000000;stroke:#000000;stroke-width:0.141;stroke-miterlimit:4.1"
       d="M 43.000001,146.76709 H 32"
       id="path52"
       sodipodi:nodetypes="cc" /><circle
       style="fill:#000000;stroke:#000000;stroke-width:0.141;stroke-miterlimit:10;stroke-dasharray:none"
       id="circle52"
       cx="32"
       cy="146.76709"
       r="0.32490087" /><path
       style="fill:#000000;stroke:#000000;stroke-width:0.141;stroke-miterlimit:4.1"
       d="M 56.019874,150.76709 H 39.000001"
       id="path53"
       sodipodi:nodetypes="cc" /><circle
       style="fill:#000000;stroke:#000000;stroke-width:0.141;stroke-miterlimit:10;stroke-dasharray:none"
       id="circle53"
       cx="39"
       cy="150.76709"
       r="0.32490087" /><path
       style="fill:none;stroke:#000000;stroke-width:0.141;stroke-miterlimit:4.1"
       d="m 53.812086,145.31367 -10e-7,2.68632 2.207789,1e-5"
       id="path54"
       sodipodi:nodetypes="ccc" /><g
       transform="matrix(0.5,0,0,0.49409455,-71.034434,63.258533)"
       id="g66"
       inkscape:label="Layer 1"
       style="stroke-width:2.01192"><path
         style="fill:none;stroke:#000000;stroke-width:0.282839;stroke-linecap:butt;stroke-linejoin:miter;stroke-miterlimit:10;stroke-opacity:1"
         d="m 231.98938,187.69983 h -3.92051 m 3.92051,5.60034 h -3.92051"
         id="path64" /><path
         style="fill:none;stroke:#000000;stroke-width:0.565681;stroke-linecap:butt;stroke-linejoin:miter;stroke-miterlimit:10;stroke-opacity:1"
         d="m 231.98938,184.89965 h 8.18417 c 3.0937,0 5.60035,2.50803 5.60035,5.60035 0,3.09232 -2.50665,5.60035 -5.60035,5.60035 h -8.18417 z m 0,0"
         id="path65" /><path
         style="fill:none;stroke:#000000;stroke-width:0.282839;stroke-linecap:butt;stroke-linejoin:miter;stroke-miterlimit:10;stroke-opacity:1"
         d="m 245.7739,190.5 h 3.91914"
         id="path66" /></g><g
       id="g80"><g
         transform="matrix(0.5,0,0,0.49409455,-16.498303,23.486208)"
         id="layer1-0"
         inkscape:label="Layer 1"
         style="stroke-width:2.01192"><path
           style="fill:none;stroke:#000000;stroke-width:0.282839;stroke-linecap:butt;stroke-linejoin:miter;stroke-miterlimit:10;stroke-opacity:1"
           d="m 174.95809,239.86123 h -3.58565"
           id="path857" /><path
           style="fill:none;stroke:#000000;stroke-width:0.282839;stroke-linecap:butt;stroke-linejoin:miter;stroke-miterlimit:10;stroke-opacity:1"
           d="m 174.95809,245.46158 h -3.58565"
           id="path859" /><path
           style="fill:none;stroke:#000000;stroke-width:0.565681;stroke-linecap:butt;stroke-linejoin:miter;stroke-miterlimit:10;stroke-opacity:1"
           d="m 175.29296,237.06106 h 3.76755 c 4.11344,-0.11576 7.96093,2.03536 10.01696,5.59896 -2.05603,3.56499 -5.90352,5.71611 -10.01696,5.60035 h -4.95129 c 1.6316,-3.51675 1.6316,-7.68256 0,-11.19931 z m 0,0"
           id="path861" /><path
           style="fill:none;stroke:#000000;stroke-width:0.282839;stroke-linecap:butt;stroke-linejoin:miter;stroke-miterlimit:10;stroke-opacity:1"
           d="m 189.07747,242.6614 h 3.91914"
           id="path863" /></g><g
         transform="matrix(0.5,0,0,0.49409455,-58.014561,67.258533)"
         id="g69"
         inkscape:label="Layer 1"
         style="stroke-width:2.01192"><path
           style="fill:none;stroke:#000000;stroke-width:0.282839;stroke-linecap:butt;stroke-linejoin:miter;stroke-miterlimit:10;stroke-opacity:1"
           d="m 231.98938,187.69983 h -3.92051 m 3.92051,5.60034 h -3.92051"
           id="path67" /><path
           style="fill:none;stroke:#000000;stroke-width:0.565681;stroke-linecap:butt;stroke-linejoin:miter;stroke-miterlimit:10;stroke-opacity:1"
           d="m 231.98938,184.89965 h 8.18417 c 3.0937,0 5.60035,2.50803 5.60035,5.60035 0,3.09232 -2.50665,5.60035 -5.60035,5.60035 h -8.18417 z m 0,0"
           id="path68" /><path
           style="fill:none;stroke:#000000;stroke-width:0.282839;stroke-linecap:butt;stroke-linejoin:miter;stroke-miterlimit:10;stroke-opacity:1"
           d="m 245.7739,190.5 h 3.91914"
           id="path69" /></g></g><path
       style="fill:#000000;stroke:#000000;stroke-width:0.141;stroke-miterlimit:4.1"
       d="M 43.000001,155.99999 H 18"
       id="path70"
       sodipodi:nodetypes="cc" /><circle
       style="fill:#000000;stroke:#000000;stroke-width:0.141;stroke-miterlimit:10;stroke-dasharray:none"
       id="circle70"
       cx="18"
       cy="156"
       r="0.32490087" /><path
       style="fill:#000000;stroke:#000000;stroke-width:0.141;stroke-miterlimit:4.1"
       d="M 43.000001,158.76709 H 29"
       id="path71"
       sodipodi:nodetypes="cc" /><circle
       style="fill:#000000;stroke:#000000;stroke-width:0.141;stroke-miterlimit:10;stroke-dasharray:none"
       id="circle71"
       cx="29"
       cy="158.76709"
       r="0.32490087" /><path
       style="fill:#000000;stroke:#000000;stroke-width:0.141;stroke-miterlimit:4.1"
       d="M 56.019874,162.76709 H 39.000001"
       id="path72"
       sodipodi:nodetypes="cc" /><circle
       style="fill:#000000;stroke:#000000;stroke-width:0.141;stroke-miterlimit:10;stroke-dasharray:none"
       id="circle72"
       cx="39"
       cy="162.76709"
       r="0.32490087" /><path
       style="fill:none;stroke:#000000;stroke-width:0.141;stroke-miterlimit:4.1"
       d="m 53.812086,157.31367 -10e-7,2.68632 2.207789,1e-5"
       id="path73"
       sodipodi:nodetypes="ccc" /><path
       style="fill:none;stroke:#000000;stroke-width:0.141;stroke-miterlimit:4.1"
       d="m 66.831958,137.38354 h 1.168043 v 4.61645 h 1.228653"
       id="path74" /><path
       style="fill:none;stroke:#000000;stroke-width:0.141;stroke-miterlimit:4.1"
       d="m 66.831959,149.38292 h 1.168043 v -4.61645 h 1.228653"
       id="path75" /><g
       transform="matrix(0.5,0,0,0.49409455,-2.498303,32.485281)"
       id="g79"
       inkscape:label="Layer 1"
       style="stroke-width:2.01192"><path
         style="fill:none;stroke:#000000;stroke-width:0.282839;stroke-linecap:butt;stroke-linejoin:miter;stroke-miterlimit:10;stroke-opacity:1"
         d="m 174.95809,239.86123 h -3.58565"
         id="path76" /><path
         style="fill:none;stroke:#000000;stroke-width:0.282839;stroke-linecap:butt;stroke-linejoin:miter;stroke-miterlimit:10;stroke-opacity:1"
         d="m 174.95809,245.46158 h -3.58565"
         id="path77" /><path
         style="fill:none;stroke:#000000;stroke-width:0.565681;stroke-linecap:butt;stroke-linejoin:miter;stroke-miterlimit:10;stroke-opacity:1"
         d="m 175.29296,237.06106 h 3.76755 c 4.11344,-0.11576 7.96093,2.03536 10.01696,5.59896 -2.05603,3.56499 -5.90352,5.71611 -10.01696,5.60035 h -4.95129 c 1.6316,-3.51675 1.6316,-7.68256 0,-11.19931 z m 0,0"
         id="path78" /><path
         style="fill:none;stroke:#000000;stroke-width:0.282839;stroke-linecap:butt;stroke-linejoin:miter;stroke-miterlimit:10;stroke-opacity:1"
         d="m 189.07747,242.6614 h 3.91914"
         id="path79" /></g><path
       style="fill:none;stroke:#000000;stroke-width:0.141;stroke-miterlimit:4.1"
       d="M 81,143.31401 V 151 l 2.187917,-5.9e-4"
       id="path80"
       sodipodi:nodetypes="ccc" /><path
       style="fill:none;stroke:#000000;stroke-width:0.141;stroke-miterlimit:4.1"
       d="m 81,161.45191 v -7.68599 l 2.187917,5.9e-4"
       id="path81"
       sodipodi:nodetypes="ccc" /><path
       style="fill:none;stroke:#000000;stroke-width:0.141;stroke-miterlimit:4.1"
       d="m 66.831958,161.38354 h 13.16804"
       id="path82" /><path
       style="fill:none;stroke:#000000;stroke-width:0.141;stroke-miterlimit:4.1"
       d="m 80,143.38388 h 0.999998"
       id="path83" /><path
       style="fill:none;stroke:#000000;stroke-width:0.141;stroke-miterlimit:4.1"
       d="m 79.999998,161.38354 h 1"
       id="path84" /><g
       fill="#000000"
       fill-opacity="1"
       id="id-431fbb3c-e748-4cfd-a042-2a8e5c88c1ec"
       transform="matrix(0.352778,0,0,0.352778,42.799217,105.71968)">&#10;    <g
   transform="translate(148.712,134.765)"
   id="g5305"><path
   d="m 3.65625,-3.984375 h 0.859375 c 0.203125,0 0.296875,0 0.296875,-0.203125 0,-0.109375 -0.09375,-0.109375 -0.265625,-0.109375 H 3.71875 L 3.921875,-5.4375 c 0.046875,-0.203125 0.1875,-0.90625 0.25,-1.03125 0.078125,-0.1875 0.25,-0.34375 0.46875,-0.34375 0.03125,0 0.296875,0 0.484375,0.1875 -0.4375,0.03125 -0.546875,0.390625 -0.546875,0.53125 0,0.234375 0.1875,0.359375 0.375,0.359375 C 5.21875,-5.734375 5.5,-5.96875 5.5,-6.34375 c 0,-0.453125 -0.453125,-0.6875 -0.859375,-0.6875 -0.34375,0 -0.96875,0.1875 -1.265625,1.171875 -0.0625,0.203125 -0.09375,0.3125 -0.328125,1.5625 h -0.6875 c -0.203125,0 -0.3125,0 -0.3125,0.1875 0,0.125 0.09375,0.125 0.28125,0.125 h 0.65625 L 2.25,-0.046875 c -0.1875,0.96875 -0.359375,1.875 -0.875,1.875 -0.046875,0 -0.28125,0 -0.484375,-0.1875 C 1.359375,1.609375 1.453125,1.25 1.453125,1.109375 1.453125,0.875 1.265625,0.75 1.078125,0.75 0.8125,0.75 0.53125,0.984375 0.53125,1.359375 c 0,0.4375 0.4375,0.6875 0.84375,0.6875 0.546875,0 0.953125,-0.59375 1.125,-0.96875 0.328125,-0.625 0.546875,-1.828125 0.5625,-1.90625 z m 0,0"
   id="id-4dcef143-b11e-4fcd-9d8e-9da2a480f6a4" />&#10;      </g></g><g
       id="g84"
       transform="translate(0.03858509,20.439437)"><g
         fill="#000000"
         fill-opacity="1"
         id="id-25c55ab0-d94d-4225-b82b-d9faeca5a70d"
         transform="matrix(0.352778,0,0,0.352778,14.22632,63.486668)">&#10;    <g
   transform="translate(148.712,146.72)"
   id="g111"><path
   d="m 3.953125,-3.78125 c -0.171875,0 -0.296875,0 -0.4375,0.125 -0.171875,0.15625 -0.1875,0.328125 -0.1875,0.390625 0,0.25 0.1875,0.359375 0.375,0.359375 0.28125,0 0.546875,-0.25 0.546875,-0.640625 0,-0.484375 -0.46875,-0.859375 -1.171875,-0.859375 -1.34375,0 -2.671875,1.421875 -2.671875,2.828125 0,0.90625 0.578125,1.6875 1.625,1.6875 1.421875,0 2.25,-1.0625 2.25,-1.171875 0,-0.0625 -0.046875,-0.140625 -0.109375,-0.140625 -0.0625,0 -0.078125,0.03125 -0.140625,0.109375 -0.78125,0.984375 -1.875,0.984375 -1.984375,0.984375 -0.625,0 -0.90625,-0.484375 -0.90625,-1.09375 0,-0.40625 0.203125,-1.375 0.546875,-1.984375 0.3125,-0.578125 0.859375,-1 1.40625,-1 0.328125,0 0.71875,0.125 0.859375,0.40625 z m 0,0"
   id="id-8390bead-c492-402d-a678-08f8a5c5ddcd" />&#10;      </g></g><g
         fill="#000000"
         fill-opacity="1"
         id="id-0ed09008-5d31-4259-8f08-95b9394da2c5"
         transform="matrix(0.352778,0,0,0.352778,14.22632,63.486668)">&#10;    <g
   transform="translate(153.024,148.214)"
   id="g8581"><path
   d="m 2.328125,-4.4375 c 0,-0.1875 0,-0.1875 -0.203125,-0.1875 -0.453125,0.4375 -1.078125,0.4375 -1.359375,0.4375 v 0.25 c 0.15625,0 0.625,0 1,-0.1875 v 3.546875 c 0,0.234375 0,0.328125 -0.6875,0.328125 H 0.8125 V 0 c 0.125,0 0.984375,-0.03125 1.234375,-0.03125 0.21875,0 1.09375,0.03125 1.25,0.03125 V -0.25 H 3.03125 c -0.703125,0 -0.703125,-0.09375 -0.703125,-0.328125 z m 0,0"
   id="id-ed99da1b-57b9-4361-93c3-c227fd9f57ef" />&#10;      </g></g></g><g
       id="g85"
       transform="translate(0,33)"><g
         fill="#000000"
         fill-opacity="1"
         id="id-41a552b8-3f33-44bd-9d51-a725a800b3eb"
         transform="matrix(0.352778,0,0,0.352778,14.22632,63.486668)">&#10;    <g
   transform="translate(148.712,158.675)"
   id="g4963"><path
   d="m 3.953125,-3.78125 c -0.171875,0 -0.296875,0 -0.4375,0.125 -0.171875,0.15625 -0.1875,0.328125 -0.1875,0.390625 0,0.25 0.1875,0.359375 0.375,0.359375 0.28125,0 0.546875,-0.25 0.546875,-0.640625 0,-0.484375 -0.46875,-0.859375 -1.171875,-0.859375 -1.34375,0 -2.671875,1.421875 -2.671875,2.828125 0,0.90625 0.578125,1.6875 1.625,1.6875 1.421875,0 2.25,-1.0625 2.25,-1.171875 0,-0.0625 -0.046875,-0.140625 -0.109375,-0.140625 -0.0625,0 -0.078125,0.03125 -0.140625,0.109375 -0.78125,0.984375 -1.875,0.984375 -1.984375,0.984375 -0.625,0 -0.90625,-0.484375 -0.90625,-1.09375 0,-0.40625 0.203125,-1.375 0.546875,-1.984375 0.3125,-0.578125 0.859375,-1 1.40625,-1 0.328125,0 0.71875,0.125 0.859375,0.40625 z m 0,0"
   id="id-34b9b72a-0b54-4477-b95f-b80d66a8e914" />&#10;      </g></g><g
         fill="#000000"
         fill-opacity="1"
         id="id-3af002e8-4710-49ab-9950-15e3cf1cc861"
         transform="matrix(0.352778,0,0,0.352778,14.22632,63.486668)">&#10;    <g
   transform="translate(153.024,160.169)"
   id="g7813"><path
   d="M 3.515625,-1.265625 H 3.28125 c -0.015625,0.15625 -0.09375,0.5625 -0.1875,0.625 C 3.046875,-0.59375 2.515625,-0.59375 2.40625,-0.59375 H 1.125 c 0.734375,-0.640625 0.984375,-0.84375 1.390625,-1.171875 0.515625,-0.40625 1,-0.84375 1,-1.5 0,-0.84375 -0.734375,-1.359375 -1.625,-1.359375 -0.859375,0 -1.453125,0.609375 -1.453125,1.25 0,0.34375 0.296875,0.390625 0.375,0.390625 0.15625,0 0.359375,-0.125 0.359375,-0.375 0,-0.125 -0.046875,-0.375 -0.40625,-0.375 C 0.984375,-4.21875 1.453125,-4.375 1.78125,-4.375 c 0.703125,0 1.0625,0.546875 1.0625,1.109375 0,0.609375 -0.4375,1.078125 -0.65625,1.328125 L 0.515625,-0.265625 C 0.4375,-0.203125 0.4375,-0.1875 0.4375,0 h 2.875 z m 0,0"
   id="id-4ac11898-7a7d-4265-805f-64ee835ad58a" />&#10;      </g></g></g><g
       id="g86"
       transform="translate(-0.01102432,36)"><g
         fill="#000000"
         fill-opacity="1"
         id="id-b2d3b9d5-bced-4748-87e3-88b24c273efa"
         transform="matrix(0.352778,0,0,0.352778,14.22632,63.486668)">&#10;    <g
   transform="translate(148.712,170.63)"
   id="g2162"><path
   d="m 3.953125,-3.78125 c -0.171875,0 -0.296875,0 -0.4375,0.125 -0.171875,0.15625 -0.1875,0.328125 -0.1875,0.390625 0,0.25 0.1875,0.359375 0.375,0.359375 0.28125,0 0.546875,-0.25 0.546875,-0.640625 0,-0.484375 -0.46875,-0.859375 -1.171875,-0.859375 -1.34375,0 -2.671875,1.421875 -2.671875,2.828125 0,0.90625 0.578125,1.6875 1.625,1.6875 1.421875,0 2.25,-1.0625 2.25,-1.171875 0,-0.0625 -0.046875,-0.140625 -0.109375,-0.140625 -0.0625,0 -0.078125,0.03125 -0.140625,0.109375 -0.78125,0.984375 -1.875,0.984375 -1.984375,0.984375 -0.625,0 -0.90625,-0.484375 -0.90625,-1.09375 0,-0.40625 0.203125,-1.375 0.546875,-1.984375 0.3125,-0.578125 0.859375,-1 1.40625,-1 0.328125,0 0.71875,0.125 0.859375,0.40625 z m 0,0"
   id="id-19750dbf-2e78-4b3c-8f6f-a32bcb33ed8b" />&#10;      </g></g><g
         fill="#000000"
         fill-opacity="1"
         id="id-abf2d1c2-8af9-4d65-b466-111ab3c3db0a"
         transform="matrix(0.352778,0,0,0.352778,14.22632,63.486668)">&#10;    <g
   transform="translate(153.024,172.125)"
   id="g9830"><path
   d="m 1.90625,-2.328125 c 0.546875,0 0.9375,0.375 0.9375,1.125 0,0.859375 -0.515625,1.125 -0.90625,1.125 -0.28125,0 -0.90625,-0.078125 -1.1875,-0.5 0.328125,0 0.40625,-0.234375 0.40625,-0.390625 0,-0.21875 -0.171875,-0.375 -0.390625,-0.375 -0.1875,0 -0.390625,0.125 -0.390625,0.40625 0,0.65625 0.71875,1.078125 1.5625,1.078125 0.96875,0 1.640625,-0.65625 1.640625,-1.34375 0,-0.546875 -0.4375,-1.09375 -1.203125,-1.25 0.71875,-0.265625 0.984375,-0.78125 0.984375,-1.21875 0,-0.546875 -0.625,-0.953125 -1.40625,-0.953125 -0.765625,0 -1.359375,0.375 -1.359375,0.9375 0,0.234375 0.15625,0.359375 0.359375,0.359375 0.21875,0 0.359375,-0.15625 0.359375,-0.34375 0,-0.203125 -0.140625,-0.359375 -0.359375,-0.375 0.25,-0.296875 0.71875,-0.375 0.984375,-0.375 0.3125,0 0.75,0.15625 0.75,0.75 0,0.296875 -0.09375,0.625 -0.28125,0.828125 -0.21875,0.265625 -0.421875,0.28125 -0.765625,0.3125 -0.171875,0.015625 -0.1875,0.015625 -0.21875,0.015625 -0.015625,0 -0.078125,0.015625 -0.078125,0.09375 0,0.09375 0.0625,0.09375 0.1875,0.09375 z m 0,0"
   id="id-813c94c2-1fd0-4e2a-aa92-2d6e91863151" />&#10;      </g></g></g></g></svg>
