<?xml version="1.0" encoding="UTF-8" standalone="no"?>
<svg
   xmlns:ns1="http://www.iki.fi/pav/software/textext/"
   xmlns:dc="http://purl.org/dc/elements/1.1/"
   xmlns:cc="http://creativecommons.org/ns#"
   xmlns:rdf="http://www.w3.org/1999/02/22-rdf-syntax-ns#"
   xmlns:svg="http://www.w3.org/2000/svg"
   xmlns="http://www.w3.org/2000/svg"
   xmlns:sodipodi="http://sodipodi.sourceforge.net/DTD/sodipodi-0.dtd"
   xmlns:inkscape="http://www.inkscape.org/namespaces/inkscape"
   width="103.70166mm"
   height="73.699852mm"
   viewBox="0 0 103.70166 73.699852"
   version="1.1"
   id="svg601"
   inkscape:version="1.0.2-2 (e86c870879, 2021-01-15)"
   sodipodi:docname="fsm_hab.svg">
  <defs
     id="defs595">
    <marker
       inkscape:collect="always"
       inkscape:isstock="true"
       style="overflow:visible"
       id="TriangleOutL"
       refX="0"
       refY="0"
       orient="auto"
       inkscape:stockid="TriangleOutL">
      <path
         transform="scale(0.8)"
         style="fill:#000000;fill-opacity:1;fill-rule:evenodd;stroke:#000000;stroke-width:1pt;stroke-opacity:1"
         d="M 5.77,0 -2.88,5 V -5 Z"
         id="path4097" />
    </marker>
    <marker
       inkscape:collect="always"
       inkscape:stockid="TriangleOutL"
       orient="auto"
       refY="0"
       refX="0"
       id="marker4283"
       style="overflow:visible"
       inkscape:isstock="true">
      <path
         id="path4281"
         d="M 5.77,0 -2.88,5 V -5 Z"
         style="fill:#000000;fill-opacity:1;fill-rule:evenodd;stroke:#000000;stroke-width:1pt;stroke-opacity:1"
         transform="scale(0.8)" />
    </marker>
    <marker
       inkscape:collect="always"
       inkscape:stockid="TriangleOutL"
       orient="auto"
       refY="0"
       refX="0"
       id="marker5080"
       style="overflow:visible"
       inkscape:isstock="true">
      <path
         id="path5078"
         d="M 5.77,0 -2.88,5 V -5 Z"
         style="fill:#000000;fill-opacity:1;fill-rule:evenodd;stroke:#000000;stroke-width:1pt;stroke-opacity:1"
         transform="scale(0.8)" />
    </marker>
    <marker
       inkscape:collect="always"
       inkscape:isstock="true"
       style="overflow:visible"
       id="marker2842"
       refX="0"
       refY="0"
       orient="auto"
       inkscape:stockid="TriangleOutL">
      <path
         transform="scale(0.8)"
         style="fill:#000000;fill-opacity:1;fill-rule:evenodd;stroke:#000000;stroke-width:1pt;stroke-opacity:1"
         d="M 5.77,0 -2.88,5 V -5 Z"
         id="path2840" />
    </marker>
    <marker
       inkscape:stockid="TriangleOutL"
       orient="auto"
       refY="0"
       refX="0"
       id="marker3148"
       style="overflow:visible"
       inkscape:isstock="true">
      <path
         id="path3146"
         d="M 5.77,0 -2.88,5 V -5 Z"
         style="fill:#000000;fill-opacity:1;fill-rule:evenodd;stroke:#000000;stroke-width:1pt;stroke-opacity:1"
         transform="scale(0.8)" />
    </marker>
  </defs>
  <sodipodi:namedview
     id="base"
     pagecolor="#ffffff"
     bordercolor="#666666"
     borderopacity="1.0"
     inkscape:pageopacity="0.0"
     inkscape:pageshadow="2"
     inkscape:zoom="2.5808534"
     inkscape:cx="211.15854"
     inkscape:cy="76.773532"
     inkscape:document-units="mm"
     inkscape:current-layer="id-6e1cbf99-3ab5-4b8b-9d61-5d1d1bc4816a"
     inkscape:document-rotation="0"
     showgrid="false"
     inkscape:window-width="1366"
     inkscape:window-height="705"
     inkscape:window-x="-8"
     inkscape:window-y="-8"
     inkscape:window-maximized="1" />
  <metadata
     id="metadata598">
    <rdf:RDF>
      <cc:Work
         rdf:about="">
        <dc:format>image/svg+xml</dc:format>
        <dc:type
           rdf:resource="http://purl.org/dc/dcmitype/StillImage" />
        <dc:title />
      </cc:Work>
    </rdf:RDF>
  </metadata>
  <g
     inkscape:label="Layer 1"
     inkscape:groupmode="layer"
     id="layer1"
     transform="translate(73.8978, -97.007)">
    <circle
       r="13.071649"
       cy="140.59145"
       cx="-60.676197"
       id="path833"
       style="fill:none;stroke:#000000;stroke-width:0.299999;stroke-miterlimit:10" />
    <g
       transform="translate(-161.09586,-3.442583)"
       id="g999">
      <g
         style="fill:#000000;fill-opacity:1"
         id="id-abb99a92-8bea-41e8-a2aa-aeccb0933c05"
         transform="matrix(0.529167,0,0,0.529167,5.6732669,82.738382)">
        <g
           id="g870"
           transform="translate(173.633,134.765)">
          <path
             style="stroke:none"
             d="m 6.4375,-6.921875 c 0,-0.03125 -0.03125,-0.109375 -0.125,-0.109375 -0.046875,0 -0.046875,0.015625 -0.171875,0.15625 L 5.65625,-6.3125 c -0.25,-0.46875 -0.765625,-0.71875 -1.421875,-0.71875 -1.265625,0 -2.453125,1.15625 -2.453125,2.359375 0,0.796875 0.515625,1.265625 1.03125,1.40625 l 1.0625,0.28125 c 0.375,0.09375 0.921875,0.25 0.921875,1.0625 0,0.890625 -0.8125,1.828125 -1.796875,1.828125 -0.640625,0 -1.75,-0.21875 -1.75,-1.453125 0,-0.234375 0.0625,-0.484375 0.0625,-0.53125 0.015625,-0.046875 0.015625,-0.0625 0.015625,-0.078125 0,-0.09375 -0.0625,-0.109375 -0.109375,-0.109375 -0.046875,0 -0.078125,0.015625 -0.109375,0.046875 -0.03125,0.03125 -0.59375,2.3125 -0.59375,2.34375 0,0.046875 0.046875,0.09375 0.109375,0.09375 0.046875,0 0.0625,-0.015625 0.1875,-0.15625 L 1.296875,-0.5 c 0.421875,0.578125 1.109375,0.71875 1.6875,0.71875 1.359375,0 2.53125,-1.328125 2.53125,-2.5625 0,-0.6875 -0.34375,-1.03125 -0.484375,-1.171875 C 4.796875,-3.734375 4.640625,-3.78125 3.765625,-4 3.53125,-4.0625 3.1875,-4.171875 3.09375,-4.1875 2.828125,-4.28125 2.484375,-4.5625 2.484375,-5.09375 c 0,-0.8125 0.796875,-1.65625 1.75,-1.65625 0.8125,0 1.421875,0.4375 1.421875,1.546875 0,0.3125 -0.03125,0.5 -0.03125,0.5625 0,0 0,0.09375 0.109375,0.09375 0.109375,0 0.125,-0.03125 0.15625,-0.203125 z m 0,0"
             id="id-6e55cd26-2621-4715-84d8-544e9d9cfa6b" />
        </g>
      </g>
      <g
         style="fill:#000000;fill-opacity:1"
         id="id-bc5101fc-8767-4ed1-b491-fbeb2a44e1c3"
         transform="matrix(0.529167,0,0,0.529167,5.6732669,82.738382)">
        <g
           id="g874"
           transform="translate(179.742,136.259)">
          <path
             style="stroke:none"
             d="M 3.59375,-2.21875 C 3.59375,-2.984375 3.5,-3.546875 3.1875,-4.03125 2.96875,-4.34375 2.53125,-4.625 1.984375,-4.625 c -1.625,0 -1.625,1.90625 -1.625,2.40625 0,0.5 0,2.359375 1.625,2.359375 1.609375,0 1.609375,-1.859375 1.609375,-2.359375 z M 1.984375,-0.0625 c -0.328125,0 -0.75,-0.1875 -0.890625,-0.75 C 1,-1.21875 1,-1.796875 1,-2.3125 1,-2.828125 1,-3.359375 1.09375,-3.734375 1.25,-4.28125 1.6875,-4.4375 1.984375,-4.4375 c 0.375,0 0.734375,0.234375 0.859375,0.640625 0.109375,0.375 0.125,0.875 0.125,1.484375 0,0.515625 0,1.03125 -0.09375,1.46875 -0.140625,0.640625 -0.609375,0.78125 -0.890625,0.78125 z m 0,0"
             id="id-c213513f-6c36-4d53-8181-5bccfddfe2c8" />
        </g>
      </g>
    </g>
    <g
       transform="translate(-94.137375,-67.608767)"
       id="g4770">
      <g
         style="fill:#000000;fill-opacity:1"
         id="id-d931a64c-ea95-4712-9f42-a7d1d4796b0b"
         transform="matrix(0.529167,0,0,0.529167,-9.2330341,146.23192)">
        <g
           id="g1373"
           transform="translate(148.712,134.765)">
          <path
             style="stroke:none"
             d="m 6.4375,-6.921875 c 0,-0.03125 -0.03125,-0.109375 -0.125,-0.109375 -0.046875,0 -0.046875,0.015625 -0.171875,0.15625 L 5.65625,-6.3125 c -0.25,-0.46875 -0.765625,-0.71875 -1.421875,-0.71875 -1.265625,0 -2.453125,1.15625 -2.453125,2.359375 0,0.796875 0.515625,1.265625 1.03125,1.40625 l 1.0625,0.28125 c 0.375,0.09375 0.921875,0.25 0.921875,1.0625 0,0.890625 -0.8125,1.828125 -1.796875,1.828125 -0.640625,0 -1.75,-0.21875 -1.75,-1.453125 0,-0.234375 0.0625,-0.484375 0.0625,-0.53125 0.015625,-0.046875 0.015625,-0.0625 0.015625,-0.078125 0,-0.09375 -0.0625,-0.109375 -0.109375,-0.109375 -0.046875,0 -0.078125,0.015625 -0.109375,0.046875 -0.03125,0.03125 -0.59375,2.3125 -0.59375,2.34375 0,0.046875 0.046875,0.09375 0.109375,0.09375 0.046875,0 0.0625,-0.015625 0.1875,-0.15625 L 1.296875,-0.5 c 0.421875,0.578125 1.109375,0.71875 1.6875,0.71875 1.359375,0 2.53125,-1.328125 2.53125,-2.5625 0,-0.6875 -0.34375,-1.03125 -0.484375,-1.171875 C 4.796875,-3.734375 4.640625,-3.78125 3.765625,-4 3.53125,-4.0625 3.1875,-4.171875 3.09375,-4.1875 2.828125,-4.28125 2.484375,-4.5625 2.484375,-5.09375 c 0,-0.8125 0.796875,-1.65625 1.75,-1.65625 0.8125,0 1.421875,0.4375 1.421875,1.546875 0,0.3125 -0.03125,0.5 -0.03125,0.5625 0,0 0,0.09375 0.109375,0.09375 0.109375,0 0.125,-0.03125 0.15625,-0.203125 z m 0,0"
             id="id-8a2514e9-2a43-4871-9c37-04fdc859b4f4" />
        </g>
      </g>
      <g
         style="fill:#000000;fill-opacity:1"
         id="id-a122e10c-46f3-47b5-93d2-8d7f4303a8ef"
         transform="matrix(0.529167,0,0,0.529167,-9.2330341,146.23192)">
        <g
           id="g1377"
           transform="translate(154.821,136.259)">
          <path
             style="stroke:none"
             d="m 2.328125,-4.4375 c 0,-0.1875 0,-0.1875 -0.203125,-0.1875 -0.453125,0.4375 -1.078125,0.4375 -1.359375,0.4375 v 0.25 c 0.15625,0 0.625,0 1,-0.1875 v 3.546875 c 0,0.234375 0,0.328125 -0.6875,0.328125 H 0.8125 V 0 c 0.125,0 0.984375,-0.03125 1.234375,-0.03125 0.21875,0 1.09375,0.03125 1.25,0.03125 V -0.25 H 3.03125 c -0.703125,0 -0.703125,-0.09375 -0.703125,-0.328125 z m 0,0"
             id="id-55f8a5bb-4f44-492d-970e-e6bda976d961" />
        </g>
      </g>
    </g>
    <g
       transform="translate(-63.535014,-66.806958)"
       id="g4778">
      <g
         style="fill:#000000;fill-opacity:1"
         id="id-5b2c6336-35b9-4f6a-a2f7-e105423a3cce"
         transform="matrix(0.529167,0,0,0.529167,-9.2330341,146.23192)">
        <g
           id="g1381"
           transform="translate(162.612,134.765)">
          <path
             style="stroke:none"
             d="m 6.4375,-6.921875 c 0,-0.03125 -0.03125,-0.109375 -0.125,-0.109375 -0.046875,0 -0.046875,0.015625 -0.171875,0.15625 L 5.65625,-6.3125 c -0.25,-0.46875 -0.765625,-0.71875 -1.421875,-0.71875 -1.265625,0 -2.453125,1.15625 -2.453125,2.359375 0,0.796875 0.515625,1.265625 1.03125,1.40625 l 1.0625,0.28125 c 0.375,0.09375 0.921875,0.25 0.921875,1.0625 0,0.890625 -0.8125,1.828125 -1.796875,1.828125 -0.640625,0 -1.75,-0.21875 -1.75,-1.453125 0,-0.234375 0.0625,-0.484375 0.0625,-0.53125 0.015625,-0.046875 0.015625,-0.0625 0.015625,-0.078125 0,-0.09375 -0.0625,-0.109375 -0.109375,-0.109375 -0.046875,0 -0.078125,0.015625 -0.109375,0.046875 -0.03125,0.03125 -0.59375,2.3125 -0.59375,2.34375 0,0.046875 0.046875,0.09375 0.109375,0.09375 0.046875,0 0.0625,-0.015625 0.1875,-0.15625 L 1.296875,-0.5 c 0.421875,0.578125 1.109375,0.71875 1.6875,0.71875 1.359375,0 2.53125,-1.328125 2.53125,-2.5625 0,-0.6875 -0.34375,-1.03125 -0.484375,-1.171875 C 4.796875,-3.734375 4.640625,-3.78125 3.765625,-4 3.53125,-4.0625 3.1875,-4.171875 3.09375,-4.1875 2.828125,-4.28125 2.484375,-4.5625 2.484375,-5.09375 c 0,-0.8125 0.796875,-1.65625 1.75,-1.65625 0.8125,0 1.421875,0.4375 1.421875,1.546875 0,0.3125 -0.03125,0.5 -0.03125,0.5625 0,0 0,0.09375 0.109375,0.09375 0.109375,0 0.125,-0.03125 0.15625,-0.203125 z m 0,0"
             id="id-7e05b466-5ed8-4ded-bfea-0f69ee2162d6" />
        </g>
      </g>
      <g
         style="fill:#000000;fill-opacity:1"
         id="id-4d06e09e-42b1-4d4f-83fe-f60a4a80cfe2"
         transform="matrix(0.529167,0,0,0.529167,-9.2330341,146.23192)">
        <g
           id="g1385"
           transform="translate(168.721,136.259)">
          <path
             style="stroke:none"
             d="M 3.515625,-1.265625 H 3.28125 c -0.015625,0.15625 -0.09375,0.5625 -0.1875,0.625 C 3.046875,-0.59375 2.515625,-0.59375 2.40625,-0.59375 H 1.125 c 0.734375,-0.640625 0.984375,-0.84375 1.390625,-1.171875 0.515625,-0.40625 1,-0.84375 1,-1.5 0,-0.84375 -0.734375,-1.359375 -1.625,-1.359375 -0.859375,0 -1.453125,0.609375 -1.453125,1.25 0,0.34375 0.296875,0.390625 0.375,0.390625 0.15625,0 0.359375,-0.125 0.359375,-0.375 0,-0.125 -0.046875,-0.375 -0.40625,-0.375 C 0.984375,-4.21875 1.453125,-4.375 1.78125,-4.375 c 0.703125,0 1.0625,0.546875 1.0625,1.109375 0,0.609375 -0.4375,1.078125 -0.65625,1.328125 L 0.515625,-0.265625 C 0.4375,-0.203125 0.4375,-0.1875 0.4375,0 h 2.875 z m 0,0"
             id="id-911f6318-c472-4380-a4a3-f115d089e470" />
        </g>
      </g>
    </g>
    <circle
       style="fill:none;stroke:#000000;stroke-width:0.299999;stroke-miterlimit:10"
       id="circle3943"
       cx="-22.047014"
       cy="140.59145"
       r="13.071649" />
    <circle
       style="fill:none;stroke:#000000;stroke-width:0.299999;stroke-miterlimit:10"
       id="circle3945"
       cx="16.582167"
       cy="140.59145"
       r="13.071649" />
    <path
       sodipodi:nodetypes="cc"
       id="path3953"
       d="m -47.641438,140.72784 c 4.699229,-3.66087 8.133387,-2.66847 11.111876,0"
       style="fill:none;stroke:#000000;stroke-width:0.3;stroke-miterlimit:10;stroke-dasharray:none;marker-end:url(#TriangleOutL)" />
    <path
       style="fill:none;stroke:#000000;stroke-width:0.3;stroke-miterlimit:10;stroke-dasharray:none;marker-end:url(#marker4283)"
       d="m -9.012274,140.72784 c 4.699224,-3.66087 8.133384,-2.66847 11.111874,0"
       id="path4279"
       sodipodi:nodetypes="cc" />
    <path
       style="fill:none;stroke:#000000;stroke-width:0.3;stroke-miterlimit:10;stroke-dasharray:none;marker-end:url(#marker5080)"
       d="m -67.343447,129.19957 c -0.160292,-13.19713 7.969078,-13.64057 7.993572,-3.44903"
       id="path5076"
       sodipodi:nodetypes="cc" />
    <path
       style="fill:#000000;fill-opacity:1;stroke:none;stroke-width:0.529167"
       d="m -21.982522,168.01655 c 0.157096,-0.19843 0.355534,-0.45475 0.487826,-0.59531 0.165368,-0.19017 0.380338,-0.27285 0.628388,-0.27285 v -0.16536 c -0.14056,0.008 -0.29766,0.0165 -0.43822,0.0165 -0.157095,0 -0.438215,-0.008 -0.504361,-0.0165 v 0.16536 c 0.115755,0.008 0.157096,0.0744 0.157096,0.16536 0,0.0827 -0.05788,0.14883 -0.08268,0.18191 l -0.322461,0.41341 -0.413412,-0.53744 c -0.04961,-0.0496 -0.04961,-0.0579 -0.04961,-0.091 0,-0.0827 0.08268,-0.13229 0.181901,-0.13229 v -0.16536 c -0.132292,0.008 -0.479558,0.0165 -0.570508,0.0165 -0.107487,0 -0.355534,-0.008 -0.496094,-0.0165 v 0.16536 c 0.37207,0 0.37207,0 0.620117,0.32246 l 0.520899,0.678 -0.496094,0.62838 c -0.248047,0.30593 -0.56224,0.3142 -0.669727,0.3142 v 0.16536 c 0.132292,-0.008 0.297656,-0.0165 0.438216,-0.0165 0.148829,0 0.372071,0.008 0.496094,0.0165 v -0.16536 c -0.115755,-0.0165 -0.148828,-0.0827 -0.148828,-0.16537 0,-0.11575 0.148828,-0.28939 0.47129,-0.66973 l 0.405143,0.52917 c 0.04134,0.0579 0.107487,0.14056 0.107487,0.17363 0,0.0496 -0.04961,0.1323 -0.190169,0.1323 v 0.16536 c 0.157096,-0.008 0.454753,-0.0165 0.570511,-0.0165 0.14056,0 0.34726,0.008 0.50436,0.0165 v -0.16536 c -0.28112,0 -0.38034,-0.008 -0.4961,-0.16537 z m 0,0"
       id="id-63aa7e99-fbdf-43a6-afb0-c9ec784c36c5" />
    <g
       transform="translate(-116.321, -11.3163)"
       id="g2818">
      <g
         id="g2747"
         transform="translate(-8.1517205,42.495855)">
        <g
           transform="matrix(0.529167,0,0,0.529167,-25.463083,-1.7650846)"
           id="id-4bdcfefa-e7d2-40b7-bdb4-5c83aebfae44"
           style="fill:#000000;fill-opacity:1">
          <g
             transform="translate(148.712,134.765)"
             id="g2418">
            <path
               id="id-806961b2-85a5-48aa-a515-b5192ef8a5d1"
               d="M 2.25,-6.03125 C 2.25,-6.390625 2.265625,-6.5 3.0625,-6.5 h 0.25 v -0.3125 c -0.34375,0.03125 -1.125,0.03125 -1.515625,0.03125 -0.375,0 -1.171875,0 -1.515625,-0.03125 V -6.5 h 0.25 c 0.796875,0 0.828125,0.109375 0.828125,0.46875 v 5.25 c 0,0.359375 -0.03125,0.46875 -0.828125,0.46875 h -0.25 V 0 c 0.34375,-0.03125 1.140625,-0.03125 1.515625,-0.03125 0.390625,0 1.171875,0 1.515625,0.03125 v -0.3125 h -0.25 C 2.265625,-0.3125 2.25,-0.421875 2.25,-0.78125 Z m 0,0"
               style="stroke:none" />
          </g>
          <g
             transform="translate(152.309,134.765)"
             id="g2421">
            <path
               id="id-ce3f971d-0448-46c6-a1ad-7c833d442b67"
               d="M 1.09375,-3.421875 V -0.75 c 0,0.4375 -0.109375,0.4375 -0.78125,0.4375 V 0 c 0.359375,-0.015625 0.859375,-0.03125 1.140625,-0.03125 0.25,0 0.765625,0.015625 1.109375,0.03125 v -0.3125 c -0.671875,0 -0.78125,0 -0.78125,-0.4375 V -2.59375 C 1.78125,-3.625 2.5,-4.1875 3.125,-4.1875 c 0.640625,0 0.75,0.53125 0.75,1.109375 V -0.75 c 0,0.4375 -0.109375,0.4375 -0.78125,0.4375 V 0 c 0.34375,-0.015625 0.859375,-0.03125 1.125,-0.03125 0.25,0 0.78125,0.015625 1.109375,0.03125 v -0.3125 c -0.515625,0 -0.765625,0 -0.765625,-0.296875 v -1.90625 c 0,-0.859375 0,-1.15625 -0.3125,-1.515625 -0.140625,-0.171875 -0.46875,-0.375 -1.046875,-0.375 C 2.46875,-4.40625 2,-3.984375 1.71875,-3.359375 V -4.40625 L 0.3125,-4.296875 v 0.3125 c 0.703125,0 0.78125,0.0625 0.78125,0.5625 z m 0,0"
               style="stroke:none" />
          </g>
          <g
             transform="translate(157.845,134.765)"
             id="g2424">
            <path
               id="id-179e2cbc-abcd-48a9-a10e-2f0b0c7eba5a"
               d="m 1.71875,-3.75 v -0.65625 l -1.4375,0.109375 v 0.3125 c 0.703125,0 0.78125,0.0625 0.78125,0.5 v 4.65625 C 1.0625,1.625 0.953125,1.625 0.28125,1.625 V 1.9375 C 0.625,1.921875 1.140625,1.90625 1.390625,1.90625 c 0.28125,0 0.78125,0.015625 1.125,0.03125 V 1.625 C 1.859375,1.625 1.75,1.625 1.75,1.171875 V -0.59375 c 0.046875,0.171875 0.46875,0.703125 1.21875,0.703125 1.1875,0 2.21875,-0.984375 2.21875,-2.265625 0,-1.265625 -0.953125,-2.25 -2.078125,-2.25 -0.78125,0 -1.203125,0.4375 -1.390625,0.65625 z M 1.75,-1.140625 v -2.21875 C 2.03125,-3.875 2.515625,-4.15625 3.03125,-4.15625 c 0.734375,0 1.328125,0.875 1.328125,2 0,1.203125 -0.6875,2.046875 -1.421875,2.046875 -0.40625,0 -0.78125,-0.203125 -1.046875,-0.609375 C 1.75,-0.921875 1.75,-0.9375 1.75,-1.140625 Z m 0,0"
               style="stroke:none" />
          </g>
          <g
             transform="translate(163.38,134.765)"
             id="g2427">
            <path
               id="id-cb8db126-05a2-4c6b-bab8-546b8c3ac608"
               d="M 3.890625,-0.78125 V 0.109375 L 5.328125,0 V -0.3125 C 4.640625,-0.3125 4.5625,-0.375 4.5625,-0.875 v -3.53125 l -1.46875,0.109375 v 0.3125 c 0.6875,0 0.78125,0.0625 0.78125,0.5625 v 1.765625 c 0,0.875 -0.484375,1.546875 -1.21875,1.546875 -0.828125,0 -0.875,-0.46875 -0.875,-0.984375 v -3.3125 L 0.3125,-4.296875 v 0.3125 c 0.78125,0 0.78125,0.03125 0.78125,0.90625 v 1.5 c 0,0.78125 0,1.6875 1.515625,1.6875 0.5625,0 1,-0.28125 1.28125,-0.890625 z m 0,0"
               style="stroke:none" />
          </g>
          <g
             transform="translate(168.915,134.765)"
             id="g2431">
            <path
               id="id-e632f81d-add5-408e-9d63-a7839e3dd44d"
               d="m 1.71875,-3.984375 h 1.4375 v -0.3125 H 1.71875 V -6.125 h -0.25 c 0,0.8125 -0.296875,1.875 -1.28125,1.921875 v 0.21875 h 0.84375 v 2.75 c 0,1.21875 0.9375,1.34375 1.296875,1.34375 0.703125,0 0.984375,-0.703125 0.984375,-1.34375 v -0.5625 h -0.25 V -1.25 c 0,0.734375 -0.296875,1.109375 -0.671875,1.109375 -0.671875,0 -0.671875,-0.90625 -0.671875,-1.078125 z m 0,0"
               style="stroke:none" />
          </g>
        </g>
        <g
           transform="matrix(0.529167,0,0,0.529167,-25.463083,-1.7650846)"
           id="id-62f0616e-0e80-4fc4-aac2-6bff304b6d6a"
           style="fill:#000000;fill-opacity:1">
          <g
             transform="translate(176.107,134.765)"
             id="g2435">
            <path
               id="id-c8721c93-3898-4690-bc45-25f6420233ab"
               d="m 1.90625,-3.765625 c 0,-0.296875 -0.234375,-0.53125 -0.515625,-0.53125 -0.296875,0 -0.53125,0.234375 -0.53125,0.53125 0,0.28125 0.234375,0.53125 0.53125,0.53125 0.28125,0 0.515625,-0.25 0.515625,-0.53125 z m 0,3.234375 c 0,-0.28125 -0.234375,-0.53125 -0.515625,-0.53125 -0.296875,0 -0.53125,0.25 -0.53125,0.53125 C 0.859375,-0.234375 1.09375,0 1.390625,0 1.671875,0 1.90625,-0.234375 1.90625,-0.53125 Z m 0,0"
               style="stroke:none" />
          </g>
        </g>
        <g
           transform="matrix(0.529167,0,0,0.529167,-25.463083,-1.7650846)"
           id="id-35def95d-71d3-4012-9376-ebb452b7378c"
           style="fill:#000000;fill-opacity:1">
          <g
             transform="translate(183.308,134.765)"
             id="g2439">
            <path
               id="id-6a1c9d8a-12d9-4dd1-9b8b-dfd612edad72"
               d="m 1.359375,-0.78125 c 0,0.359375 -0.03125,0.46875 -0.796875,0.46875 H 0.328125 V 0 h 5.75 L 6.5,-2.578125 H 6.25 C 6,-1.03125 5.765625,-0.3125 4.0625,-0.3125 H 2.734375 C 2.265625,-0.3125 2.25,-0.375 2.25,-0.703125 V -3.375 h 0.890625 c 0.96875,0 1.078125,0.328125 1.078125,1.171875 h 0.25 V -4.84375 h -0.25 c 0,0.859375 -0.109375,1.171875 -1.078125,1.171875 H 2.25 v -2.40625 c 0,-0.328125 0.015625,-0.390625 0.484375,-0.390625 h 1.28125 c 1.53125,0 1.796875,0.546875 1.953125,1.9375 h 0.25 l -0.28125,-2.25 H 0.328125 v 0.3125 H 0.5625 c 0.765625,0 0.796875,0.109375 0.796875,0.46875 z m 0,0"
               style="stroke:none" />
          </g>
          <g
             transform="translate(190.089,134.765)"
             id="g2443">
            <path
               id="id-934b942e-42d2-4c0e-9db7-fdb3f36b074a"
               d="m 7.1875,-3.375 c 0,-2.03125 -1.5,-3.65625 -3.3125,-3.65625 -1.796875,0 -3.3125,1.59375 -3.3125,3.65625 0,2.046875 1.53125,3.59375 3.3125,3.59375 1.8125,0 3.3125,-1.578125 3.3125,-3.59375 z M 3.875,-0.046875 c -0.953125,0 -2.296875,-0.875 -2.296875,-3.46875 0,-2.578125 1.46875,-3.265625 2.296875,-3.265625 0.859375,0 2.28125,0.703125 2.28125,3.265625 0,2.640625 -1.359375,3.46875 -2.28125,3.46875 z m 0,0"
               style="stroke:none" />
          </g>
          <g
             transform="translate(197.838,134.765)"
             id="g2447">
            <path
               id="id-ef011a90-c82e-4e3c-b116-ffcf99c39d67"
               d="m 5.796875,-6.78125 h -5.46875 v 0.3125 H 0.5625 c 0.765625,0 0.796875,0.109375 0.796875,0.46875 v 5.21875 c 0,0.359375 -0.03125,0.46875 -0.796875,0.46875 H 0.328125 V 0 c 0.34375,-0.03125 1.125,-0.03125 1.515625,-0.03125 0.40625,0 1.3125,0 1.671875,0.03125 V -0.3125 H 3.1875 C 2.25,-0.3125 2.25,-0.4375 2.25,-0.78125 v -2.453125 h 0.84375 c 0.96875,0 1.0625,0.3125 1.0625,1.15625 h 0.25 V -4.71875 h -0.25 c 0,0.84375 -0.09375,1.171875 -1.0625,1.171875 H 2.25 v -2.53125 c 0,-0.328125 0.015625,-0.390625 0.484375,-0.390625 h 1.1875 c 1.5,0 1.75,0.5625 1.90625,1.9375 h 0.25 z m 0,0"
               style="stroke:none" />
          </g>
        </g>
      </g>
      <g
         id="g2771"
         transform="translate(-39.4934, 49.4449)">
        <g
           transform="matrix(0.529167,0,0,0.529167,-25.463083,-1.7650846)"
           id="id-ff46b4f4-6269-4aed-ad56-c97e7be864af"
           style="fill:#000000;fill-opacity:1">
          <g
             transform="translate(207.659,134.765)"
             id="g2451">
            <path
               id="id-d2e3f117-57de-4cbd-94bb-a9a01bc79dc1"
               d="m 7.1875,-3.375 c 0,-2.03125 -1.5,-3.65625 -3.3125,-3.65625 -1.796875,0 -3.3125,1.59375 -3.3125,3.65625 0,2.046875 1.53125,3.59375 3.3125,3.59375 1.8125,0 3.3125,-1.578125 3.3125,-3.59375 z M 3.875,-0.046875 c -0.953125,0 -2.296875,-0.875 -2.296875,-3.46875 0,-2.578125 1.46875,-3.265625 2.296875,-3.265625 0.859375,0 2.28125,0.703125 2.28125,3.265625 0,2.640625 -1.359375,3.46875 -2.28125,3.46875 z m 0,0"
               style="stroke:none" />
          </g>
          <g
             transform="translate(215.408,134.765)"
             id="g2454">
            <path
               id="id-91f8bff3-3379-4b02-b5c8-083d2bb8571d"
               d="M 3.890625,-0.78125 V 0.109375 L 5.328125,0 V -0.3125 C 4.640625,-0.3125 4.5625,-0.375 4.5625,-0.875 v -3.53125 l -1.46875,0.109375 v 0.3125 c 0.6875,0 0.78125,0.0625 0.78125,0.5625 v 1.765625 c 0,0.875 -0.484375,1.546875 -1.21875,1.546875 -0.828125,0 -0.875,-0.46875 -0.875,-0.984375 v -3.3125 L 0.3125,-4.296875 v 0.3125 c 0.78125,0 0.78125,0.03125 0.78125,0.90625 v 1.5 c 0,0.78125 0,1.6875 1.515625,1.6875 0.5625,0 1,-0.28125 1.28125,-0.890625 z m 0,0"
               style="stroke:none" />
          </g>
          <g
             transform="translate(220.943,134.765)"
             id="g2458">
            <path
               id="id-1632be0d-a338-4d53-ae40-aeb77549dfba"
               d="m 1.71875,-3.984375 h 1.4375 v -0.3125 H 1.71875 V -6.125 h -0.25 c 0,0.8125 -0.296875,1.875 -1.28125,1.921875 v 0.21875 h 0.84375 v 2.75 c 0,1.21875 0.9375,1.34375 1.296875,1.34375 0.703125,0 0.984375,-0.703125 0.984375,-1.34375 v -0.5625 h -0.25 V -1.25 c 0,0.734375 -0.296875,1.109375 -0.671875,1.109375 -0.671875,0 -0.671875,-0.90625 -0.671875,-1.078125 z m 0,0"
               style="stroke:none" />
          </g>
          <g
             transform="translate(224.817,134.765)"
             id="g2461">
            <path
               id="id-7d788365-6849-432a-9b20-0d9f711d2671"
               d="m 1.71875,-3.75 v -0.65625 l -1.4375,0.109375 v 0.3125 c 0.703125,0 0.78125,0.0625 0.78125,0.5 v 4.65625 C 1.0625,1.625 0.953125,1.625 0.28125,1.625 V 1.9375 C 0.625,1.921875 1.140625,1.90625 1.390625,1.90625 c 0.28125,0 0.78125,0.015625 1.125,0.03125 V 1.625 C 1.859375,1.625 1.75,1.625 1.75,1.171875 V -0.59375 c 0.046875,0.171875 0.46875,0.703125 1.21875,0.703125 1.1875,0 2.21875,-0.984375 2.21875,-2.265625 0,-1.265625 -0.953125,-2.25 -2.078125,-2.25 -0.78125,0 -1.203125,0.4375 -1.390625,0.65625 z M 1.75,-1.140625 v -2.21875 C 2.03125,-3.875 2.515625,-4.15625 3.03125,-4.15625 c 0.734375,0 1.328125,0.875 1.328125,2 0,1.203125 -0.6875,2.046875 -1.421875,2.046875 -0.40625,0 -0.78125,-0.203125 -1.046875,-0.609375 C 1.75,-0.921875 1.75,-0.9375 1.75,-1.140625 Z m 0,0"
               style="stroke:none" />
          </g>
          <g
             transform="translate(230.353,134.765)"
             id="g2465">
            <path
               id="id-a59ea694-02d8-4a3e-bb8c-03ab3f4e1795"
               d="M 3.890625,-0.78125 V 0.109375 L 5.328125,0 V -0.3125 C 4.640625,-0.3125 4.5625,-0.375 4.5625,-0.875 v -3.53125 l -1.46875,0.109375 v 0.3125 c 0.6875,0 0.78125,0.0625 0.78125,0.5625 v 1.765625 c 0,0.875 -0.484375,1.546875 -1.21875,1.546875 -0.828125,0 -0.875,-0.46875 -0.875,-0.984375 v -3.3125 L 0.3125,-4.296875 v 0.3125 c 0.78125,0 0.78125,0.03125 0.78125,0.90625 v 1.5 c 0,0.78125 0,1.6875 1.515625,1.6875 0.5625,0 1,-0.28125 1.28125,-0.890625 z m 0,0"
               style="stroke:none" />
          </g>
          <g
             transform="translate(235.888,134.765)"
             id="g2469">
            <path
               id="id-8faa212a-f3c7-4eb1-abd4-3a9ea2941608"
               d="m 1.71875,-3.984375 h 1.4375 v -0.3125 H 1.71875 V -6.125 h -0.25 c 0,0.8125 -0.296875,1.875 -1.28125,1.921875 v 0.21875 h 0.84375 v 2.75 c 0,1.21875 0.9375,1.34375 1.296875,1.34375 0.703125,0 0.984375,-0.703125 0.984375,-1.34375 v -0.5625 h -0.25 V -1.25 c 0,0.734375 -0.296875,1.109375 -0.671875,1.109375 -0.671875,0 -0.671875,-0.90625 -0.671875,-1.078125 z m 0,0"
               style="stroke:none" />
          </g>
          <g
             transform="translate(239.762,134.765)"
             id="g2473">
            <path
               id="id-5ba2ed80-6bab-45c0-aa3e-a11ffe5944d5"
               d="m 1.90625,-3.765625 c 0,-0.296875 -0.234375,-0.53125 -0.515625,-0.53125 -0.296875,0 -0.53125,0.234375 -0.53125,0.53125 0,0.28125 0.234375,0.53125 0.53125,0.53125 0.28125,0 0.515625,-0.25 0.515625,-0.53125 z m 0,3.234375 c 0,-0.28125 -0.234375,-0.53125 -0.515625,-0.53125 -0.296875,0 -0.53125,0.25 -0.53125,0.53125 C 0.859375,-0.234375 1.09375,0 1.390625,0 1.671875,0 1.90625,-0.234375 1.90625,-0.53125 Z m 0,0"
               style="stroke:none" />
          </g>
        </g>
        <g
           transform="matrix(0.529167 0 0 0.529167 -25.4631 -1.76508)"
           id="id-6e1cbf99-3ab5-4b8b-9d61-5d1d1bc4816a"
           style="fill:#000000;fill-opacity:1">
          <g
             transform="translate(246.953,134.765)"
             id="g2477">
            <path
               id="id-c92216a1-e697-414c-b932-1f582eeedd8d"
               d="m 5.796875,-2.578125 h -0.25 c -0.109375,1.015625 -0.25,2.265625 -2,2.265625 h -0.8125 C 2.265625,-0.3125 2.25,-0.375 2.25,-0.703125 v -5.3125 C 2.25,-6.359375 2.25,-6.5 3.1875,-6.5 H 3.515625 V -6.8125 C 3.15625,-6.78125 2.25,-6.78125 1.84375,-6.78125 c -0.390625,0 -1.171875,0 -1.515625,-0.03125 V -6.5 H 0.5625 c 0.765625,0 0.796875,0.109375 0.796875,0.46875 v 5.25 c 0,0.359375 -0.03125,0.46875 -0.796875,0.46875 H 0.328125 V 0 h 5.1875 z m 0,0"
               style="stroke:none" />
          </g>
          <g
             transform="translate(253.18,134.765)"
             id="g2480">
            <path
               id="id-d7c7eb62-6387-44a8-a214-32fd48afb585"
               d="M 0.34375,-6.8125 V -6.5 h 0.25 c 0.765625,0 0.78125,0.109375 0.78125,0.46875 v 5.25 c 0,0.359375 -0.015625,0.46875 -0.78125,0.46875 h -0.25 V 0 H 4 C 5.671875,0 7.046875,-1.46875 7.046875,-3.34375 7.046875,-5.25 5.703125,-6.8125 4,-6.8125 Z m 2.375,6.5 C 2.25,-0.3125 2.234375,-0.375 2.234375,-0.703125 V -6.09375 C 2.234375,-6.4375 2.25,-6.5 2.71875,-6.5 h 1 c 0.625,0 1.3125,0.21875 1.8125,0.921875 0.4375,0.59375 0.515625,1.453125 0.515625,2.234375 0,1.09375 -0.1875,1.703125 -0.546875,2.1875 -0.203125,0.265625 -0.765625,0.84375 -1.765625,0.84375 z m 0,0"
               style="stroke:none" />
          </g>
          <g
             transform="translate(235.19896,138.29427)"
             id="g2483">
            <text
               xml:space="preserve"
               style="font-size:6.66665px;line-height:1.25;font-family:'Californian FB';-inkscape-font-specification:'Californian FB';letter-spacing:0px;word-spacing:0px;stroke-width:0.5"
               x="3.9843774"
               y="-4.171874"
               id="text350"><tspan
                 sodipodi:role="line"
                 id="tspan348"
                 x="3.9843774"
                 y="-4.171874"
                 style="stroke-width:0.5" /></text>
            <g
               transform="matrix(1.0021141,0,0,1.0000138,25.027539,-10.341314)"
               ns1:version="1.8.2"
               ns1:texconverter="pdflatex"
               ns1:pdfconverter="inkscape"
               ns1:text="X"
               ns1:preamble="C:\Users\Jules Verdejo\AppData\Roaming\inkscape\extensions\textext\default_packages.tex"
               ns1:scale="2.0"
               ns1:alignment="middle center"
               ns1:stroke-to-path="0"
               ns1:inkscapeversion="1.0.2-2"
               ns1:jacobian_sqrt="1.33333"
               id="g452"
               style="stroke-width:1.33191">
              <defs
                 id="id-c6719040-909e-4c29-acf8-f212ce41d613">
                <g
                   id="id-daae8f52-c2e7-4bf9-9074-4671602e7f09">
                  <symbol
                     overflow="visible"
                     id="id-39d482ba-66d9-42e5-b4fd-c21804f2d744">
                    <path
                       style="stroke:none;stroke-width:0"
                       d=""
                       id="id-b1c093b9-2c17-4dcd-b88e-0803d61ff9ba" />
                  </symbol>
                  <symbol
                     overflow="visible"
                     id="id-234d1f2d-adce-4203-837b-9d877402062b">
                    <path
                       style="stroke:none;stroke-width:0"
                       d="m 4,-3.84375 1.375,-2.015625 c 0.21875,-0.3125 0.5625,-0.625 1.4375,-0.640625 v -0.3125 c -0.375,0.015625 -0.84375,0.03125 -1.09375,0.03125 -0.40625,0 -0.890625,0 -1.28125,-0.03125 V -6.5 c 0.390625,0.015625 0.609375,0.234375 0.609375,0.453125 0,0.109375 -0.015625,0.125 -0.078125,0.234375 L 3.828125,-4.125 2.546875,-6.046875 C 2.515625,-6.078125 2.46875,-6.15625 2.46875,-6.203125 2.46875,-6.3125 2.6875,-6.484375 3.125,-6.5 v -0.3125 c -0.359375,0.03125 -1.078125,0.03125 -1.453125,0.03125 -0.3125,0 -0.9375,0 -1.296875,-0.03125 V -6.5 h 0.1875 c 0.546875,0 0.734375,0.0625 0.921875,0.34375 L 3.3125,-3.375 1.6875,-0.96875 C 1.546875,-0.765625 1.25,-0.3125 0.234375,-0.3125 V 0 c 0.359375,-0.015625 0.78125,-0.03125 1.109375,-0.03125 0.375,0 0.921875,0 1.28125,0.03125 V -0.3125 C 2.15625,-0.3125 2,-0.59375 2,-0.765625 2,-0.859375 2.03125,-0.890625 2.09375,-1 l 1.421875,-2.09375 1.5625,2.375 c 0.03125,0.046875 0.0625,0.078125 0.0625,0.109375 0,0.125 -0.21875,0.296875 -0.65625,0.296875 V 0 C 4.828125,-0.03125 5.5625,-0.03125 5.9375,-0.03125 c 0.421875,0 0.875,0.015625 1.296875,0.03125 v -0.3125 h -0.1875 c -0.515625,0 -0.734375,-0.046875 -0.9375,-0.359375 z m 0,0"
                       id="id-0c0d8b20-4d96-4583-838f-37486ac9a1a3" />
                  </symbol>
                </g>
              </defs>
              <g
                 id="id-cea06679-ff73-41fa-b4d3-6082fcd990d4"
                 transform="translate(-148.946,-127.953)"
                 style="stroke-width:1.33191">
                <g
                   style="fill:#000000;fill-opacity:1;stroke-width:1.33191"
                   id="id-8b529293-c2df-4386-b16d-c1ad0ba1beda">
                  <g
                     transform="translate(148.712,134.765)"
                     id="g448"
                     style="stroke-width:1.33191">
                    <path
                       style="stroke:none;stroke-width:0"
                       d="m 4,-3.84375 1.375,-2.015625 c 0.21875,-0.3125 0.5625,-0.625 1.4375,-0.640625 v -0.3125 c -0.375,0.015625 -0.84375,0.03125 -1.09375,0.03125 -0.40625,0 -0.890625,0 -1.28125,-0.03125 V -6.5 c 0.390625,0.015625 0.609375,0.234375 0.609375,0.453125 0,0.109375 -0.015625,0.125 -0.078125,0.234375 L 3.828125,-4.125 2.546875,-6.046875 C 2.515625,-6.078125 2.46875,-6.15625 2.46875,-6.203125 2.46875,-6.3125 2.6875,-6.484375 3.125,-6.5 v -0.3125 c -0.359375,0.03125 -1.078125,0.03125 -1.453125,0.03125 -0.3125,0 -0.9375,0 -1.296875,-0.03125 V -6.5 h 0.1875 c 0.546875,0 0.734375,0.0625 0.921875,0.34375 L 3.3125,-3.375 1.6875,-0.96875 C 1.546875,-0.765625 1.25,-0.3125 0.234375,-0.3125 V 0 c 0.359375,-0.015625 0.78125,-0.03125 1.109375,-0.03125 0.375,0 0.921875,0 1.28125,0.03125 V -0.3125 C 2.15625,-0.3125 2,-0.59375 2,-0.765625 2,-0.859375 2.03125,-0.890625 2.09375,-1 l 1.421875,-2.09375 1.5625,2.375 c 0.03125,0.046875 0.0625,0.078125 0.0625,0.109375 0,0.125 -0.21875,0.296875 -0.65625,0.296875 V 0 C 4.828125,-0.03125 5.5625,-0.03125 5.9375,-0.03125 c 0.421875,0 0.875,0.015625 1.296875,0.03125 v -0.3125 h -0.1875 c -0.515625,0 -0.734375,-0.046875 -0.9375,-0.359375 z m 0,0"
                       id="id-d781ba4f-032f-42b7-952a-0c4915284bbc" />
                  </g>
                </g>
              </g>
            </g>
          </g>
        </g>
      </g>
    </g>
    <g
       transform="matrix(0.529167,0,0,0.529167,-104.23246,39.437078)"
       id="id-a6ca58a0-7987-46af-875a-b863958935fa"
       style="fill:#000000;fill-opacity:1">
      <g
         transform="translate(148.712,146.72)"
         id="g2487">
        <path
           id="id-d9c66b84-bed5-4627-afd6-4c67c18acfda"
           d="m 4.578125,-3.1875 c 0,-0.796875 -0.046875,-1.59375 -0.390625,-2.328125 -0.453125,-0.96875 -1.28125,-1.125 -1.6875,-1.125 -0.609375,0 -1.328125,0.265625 -1.75,1.1875 -0.3125,0.6875 -0.359375,1.46875 -0.359375,2.265625 0,0.75 0.03125,1.640625 0.453125,2.40625 0.421875,0.796875 1.15625,1 1.640625,1 0.53125,0 1.296875,-0.203125 1.734375,-1.15625 0.3125,-0.6875 0.359375,-1.46875 0.359375,-2.25 z M 2.484375,0 C 2.09375,0 1.5,-0.25 1.328125,-1.203125 1.21875,-1.796875 1.21875,-2.71875 1.21875,-3.3125 c 0,-0.640625 0,-1.296875 0.078125,-1.828125 0.1875,-1.1875 0.9375,-1.28125 1.1875,-1.28125 0.328125,0 0.984375,0.1875 1.171875,1.171875 0.109375,0.5625 0.109375,1.3125 0.109375,1.9375 0,0.75 0,1.421875 -0.109375,2.0625 C 3.5,-0.296875 2.9375,0 2.484375,0 Z m 0,0"
           style="stroke:none" />
      </g>
    </g>
    <g
       transform="matrix(0.529167,0,0,0.529167,-140.68433,58.325003)"
       id="id-eac4e253-dfdf-4952-a29c-0d3ffac0cf76"
       style="fill:#000000;fill-opacity:1">
      <g
         transform="translate(148.712,158.675)"
         id="g2491">
        <path
           id="id-8b646ef0-4982-4337-8111-1bf6c4cc1939"
           d="m 4.578125,-3.1875 c 0,-0.796875 -0.046875,-1.59375 -0.390625,-2.328125 -0.453125,-0.96875 -1.28125,-1.125 -1.6875,-1.125 -0.609375,0 -1.328125,0.265625 -1.75,1.1875 -0.3125,0.6875 -0.359375,1.46875 -0.359375,2.265625 0,0.75 0.03125,1.640625 0.453125,2.40625 0.421875,0.796875 1.15625,1 1.640625,1 0.53125,0 1.296875,-0.203125 1.734375,-1.15625 0.3125,-0.6875 0.359375,-1.46875 0.359375,-2.25 z M 2.484375,0 C 2.09375,0 1.5,-0.25 1.328125,-1.203125 1.21875,-1.796875 1.21875,-2.71875 1.21875,-3.3125 c 0,-0.640625 0,-1.296875 0.078125,-1.828125 0.1875,-1.1875 0.9375,-1.28125 1.1875,-1.28125 0.328125,0 0.984375,0.1875 1.171875,1.171875 0.109375,0.5625 0.109375,1.3125 0.109375,1.9375 0,0.75 0,1.421875 -0.109375,2.0625 C 3.5,-0.296875 2.9375,0 2.484375,0 Z m 0,0"
           style="stroke:none" />
      </g>
    </g>
    <g
       transform="matrix(0.529167,0,0,0.529167,-142.98654,26.340871)"
       id="id-78f41e18-f5cd-412f-a15a-2d47792c9884"
       style="fill:#000000;fill-opacity:1">
      <g
         transform="translate(148.712,170.63)"
         id="g2495">
        <path
           id="id-25665b40-d706-45ef-b818-1d3e78eb1eb6"
           d="m 2.9375,-6.375 c 0,-0.25 0,-0.265625 -0.234375,-0.265625 C 2.078125,-6 1.203125,-6 0.890625,-6 v 0.3125 c 0.203125,0 0.78125,0 1.296875,-0.265625 v 5.171875 c 0,0.359375 -0.03125,0.46875 -0.921875,0.46875 h -0.3125 V 0 c 0.34375,-0.03125 1.203125,-0.03125 1.609375,-0.03125 0.390625,0 1.265625,0 1.609375,0.03125 v -0.3125 h -0.3125 c -0.90625,0 -0.921875,-0.109375 -0.921875,-0.46875 z m 0,0"
           style="stroke:none" />
      </g>
    </g>
    <g
       style="fill:#000000;fill-opacity:1"
       id="g2824"
       transform="matrix(0.529167,0,0,0.529167,-121.57456,52.845973)">
      <g
         id="g2822"
         transform="translate(148.712,158.675)">
        <path
           style="stroke:none"
           d="m 4.578125,-3.1875 c 0,-0.796875 -0.046875,-1.59375 -0.390625,-2.328125 -0.453125,-0.96875 -1.28125,-1.125 -1.6875,-1.125 -0.609375,0 -1.328125,0.265625 -1.75,1.1875 -0.3125,0.6875 -0.359375,1.46875 -0.359375,2.265625 0,0.75 0.03125,1.640625 0.453125,2.40625 0.421875,0.796875 1.15625,1 1.640625,1 0.53125,0 1.296875,-0.203125 1.734375,-1.15625 0.3125,-0.6875 0.359375,-1.46875 0.359375,-2.25 z M 2.484375,0 C 2.09375,0 1.5,-0.25 1.328125,-1.203125 1.21875,-1.796875 1.21875,-2.71875 1.21875,-3.3125 c 0,-0.640625 0,-1.296875 0.078125,-1.828125 0.1875,-1.1875 0.9375,-1.28125 1.1875,-1.28125 0.328125,0 0.984375,0.1875 1.171875,1.171875 0.109375,0.5625 0.109375,1.3125 0.109375,1.9375 0,0.75 0,1.421875 -0.109375,2.0625 C 3.5,-0.296875 2.9375,0 2.484375,0 Z m 0,0"
           id="path2820" />
      </g>
    </g>
    <path
       sodipodi:nodetypes="cc"
       id="path2838"
       d="m -28.572539,129.18776 c -0.160292,-13.19713 7.969078,-13.64057 7.993572,-3.44903"
       style="fill:none;stroke:#000000;stroke-width:0.3;stroke-miterlimit:10;stroke-dasharray:none;marker-end:url(#marker2842)" />
    <g
       style="fill:#000000;fill-opacity:1"
       id="g2966"
       transform="matrix(0.529167,0,0,0.529167,-102.05515,58.325003)">
      <g
         id="g2964"
         transform="translate(148.712,158.675)">
        <path
           style="stroke:none"
           d="m 4.578125,-3.1875 c 0,-0.796875 -0.046875,-1.59375 -0.390625,-2.328125 -0.453125,-0.96875 -1.28125,-1.125 -1.6875,-1.125 -0.609375,0 -1.328125,0.265625 -1.75,1.1875 -0.3125,0.6875 -0.359375,1.46875 -0.359375,2.265625 0,0.75 0.03125,1.640625 0.453125,2.40625 0.421875,0.796875 1.15625,1 1.640625,1 0.53125,0 1.296875,-0.203125 1.734375,-1.15625 0.3125,-0.6875 0.359375,-1.46875 0.359375,-2.25 z M 2.484375,0 C 2.09375,0 1.5,-0.25 1.328125,-1.203125 1.21875,-1.796875 1.21875,-2.71875 1.21875,-3.3125 c 0,-0.640625 0,-1.296875 0.078125,-1.828125 0.1875,-1.1875 0.9375,-1.28125 1.1875,-1.28125 0.328125,0 0.984375,0.1875 1.171875,1.171875 0.109375,0.5625 0.109375,1.3125 0.109375,1.9375 0,0.75 0,1.421875 -0.109375,2.0625 C 3.5,-0.296875 2.9375,0 2.484375,0 Z m 0,0"
           id="path2962" />
      </g>
    </g>
    <g
       style="fill:#000000;fill-opacity:1"
       id="g2972"
       transform="matrix(0.529167,0,0,0.529167,-63.45077,52.056683)">
      <g
         id="g2970"
         transform="translate(148.712,170.63)">
        <path
           style="stroke:none"
           d="m 2.9375,-6.375 c 0,-0.25 0,-0.265625 -0.234375,-0.265625 C 2.078125,-6 1.203125,-6 0.890625,-6 v 0.3125 c 0.203125,0 0.78125,0 1.296875,-0.265625 v 5.171875 c 0,0.359375 -0.03125,0.46875 -0.921875,0.46875 h -0.3125 V 0 c 0.34375,-0.03125 1.203125,-0.03125 1.609375,-0.03125 0.390625,0 1.265625,0 1.609375,0.03125 v -0.3125 h -0.3125 c -0.90625,0 -0.921875,-0.109375 -0.921875,-0.46875 z m 0,0"
           id="path2968" />
      </g>
    </g>
    <path
       sodipodi:nodetypes="cc"
       id="path3144"
       d="m 17.30216,153.66738 c -1.06291,21.61899 -78.6734,22.64721 -78.797651,2.13816"
       style="fill:none;stroke:#000000;stroke-width:0.3;stroke-miterlimit:3.9;stroke-dasharray:none;marker-end:url(#marker3148)" />
    <g
       transform="matrix(0.529167,0,0,0.529167,-82.961445,46.310383)"
       id="g3328"
       style="fill:#000000;fill-opacity:1">
      <g
         transform="translate(148.712,170.63)"
         id="g3326">
        <path
           id="path3324"
           d="m 2.9375,-6.375 c 0,-0.25 0,-0.265625 -0.234375,-0.265625 C 2.078125,-6 1.203125,-6 0.890625,-6 v 0.3125 c 0.203125,0 0.78125,0 1.296875,-0.265625 v 5.171875 c 0,0.359375 -0.03125,0.46875 -0.921875,0.46875 h -0.3125 V 0 c 0.34375,-0.03125 1.203125,-0.03125 1.609375,-0.03125 0.390625,0 1.265625,0 1.609375,0.03125 v -0.3125 h -0.3125 c -0.90625,0 -0.921875,-0.109375 -0.921875,-0.46875 z m 0,0"
           style="stroke:none" />
      </g>
    </g>
  </g>
</svg>
